<?xml version="1.0" encoding="UTF-8"?>
<svg width="24px" height="24px" viewBox="0 0 24 24" version="1.1" xmlns="http://www.w3.org/2000/svg" xmlns:xlink="http://www.w3.org/1999/xlink">
    <!-- Generator: sketchtool 52.5 (67469) - http://www.bohemiancoding.com/sketch -->
    <title>5A7DAC31-35D8-4677-B145-D0DB55FD3F1E_Color</title>
    <desc>Created with sketchtool.</desc>
    <g id="Essentials" stroke="none" stroke-width="1" fill="none" fill-rule="evenodd">
        <g id="Login-page-01" transform="translate(-1276.000000, -980.000000)">
            <g id="Facebook" transform="translate(1276.000000, 980.000000)">
                <path d="M0,12 C0,5.37258267 5.36698623,0 11.9875,0 C18.6080138,0 23.975,5.37258267 23.975,12 C23.975,18.6274173 18.6080138,24 11.9875,24 C5.36698623,24 0,18.6274173 0,12 Z" id="back" fill="#FFFFFF"></path>
                <path d="M12.8373913,18.6557384 L12.8373913,12.1271048 L14.6377024,12.1271048 L14.8762825,9.87730153 L12.8373913,9.87730153 L12.84045,8.75125333 C12.84045,8.16446999 12.8961442,7.85005807 13.7380567,7.85005807 L14.8635379,7.85005807 L14.8635379,5.6 L13.0629719,5.6 C10.9002025,5.6 10.1389638,6.69139664 10.1389638,8.52678259 L10.1389638,9.87755632 L8.79083333,9.87755632 L8.79083333,12.1273596 L10.1389638,12.1273596 L10.1389638,18.6557384 L12.8373913,18.6557384 Z" id="Shape" fill="#122135"></path>
            </g>
        </g>
    </g>
</svg>