<?xml version="1.0" encoding="UTF-8"?>
<svg width="24px" height="24px" viewBox="0 0 24 24" version="1.1" xmlns="http://www.w3.org/2000/svg" xmlns:xlink="http://www.w3.org/1999/xlink">
    <!-- Generator: sketchtool 52.5 (67469) - http://www.bohemiancoding.com/sketch -->
    <title>B6F47E37-F8FC-4DCF-9A19-F575EC885C42_Color</title>
    <desc>Created with sketchtool.</desc>
    <g id="Essentials" stroke="none" stroke-width="1" fill="none" fill-rule="evenodd">
        <g id="Login-page-01" transform="translate(-1320.000000, -980.000000)">
            <g id="LinkedIN" transform="translate(1320.000000, 980.000000)">
                <path d="M0,12 C0,5.37258267 5.36698623,0 11.9875,0 C18.6080138,0 23.975,5.37258267 23.975,12 C23.975,18.6274173 18.6080138,24 11.9875,24 C5.36698623,24 0,18.6274173 0,12 Z" id="back" fill="#FFFFFF"></path>
                <path d="M8.47143737,9.93892416 L8.47143737,18.1097799 L5.75480773,18.1097799 L5.75480773,9.93892416 L8.47143737,9.93892416 Z M8.65036145,7.41134885 C8.65036145,8.19590154 8.06042195,8.82367385 7.1131768,8.82367385 L7.09581606,8.82367385 C6.18378066,8.82367385 5.59416667,8.19590154 5.59416667,7.41134885 C5.59416667,6.61020162 6.20173817,6 7.13108006,6 C8.06042195,6 8.63272946,6.61020162 8.65036145,7.41134885 Z M18.2686431,13.4248609 L18.2685346,18.1097799 L15.5520135,18.1097799 L15.5520135,13.7383675 C15.5520135,12.6403625 15.1589013,11.8911138 14.1754699,11.8911138 C13.4249436,11.8911138 12.9779046,12.3962167 12.7815656,12.8840743 C12.7097355,13.0589135 12.6921035,13.3025169 12.6921035,13.5467169 L12.6921035,18.1099968 L9.97514835,18.1099968 C9.97514835,18.1099968 10.0109549,10.7058519 9.97514835,9.93914108 L12.6921035,9.93914108 L12.6921035,11.0964743 C13.0526643,10.5401235 13.6984294,9.74705663 15.140781,9.74705663 C16.9284486,9.74705663 18.2686431,10.9151274 18.2686431,13.4248609 Z" id="Shape" fill="#122135"></path>
            </g>
        </g>
    </g>
</svg>