<?xml version="1.0" encoding="UTF-8"?>
<svg width="24px" height="24px" viewBox="0 0 24 24" version="1.1" xmlns="http://www.w3.org/2000/svg" xmlns:xlink="http://www.w3.org/1999/xlink">
    <!-- Generator: sketchtool 52.5 (67469) - http://www.bohemiancoding.com/sketch -->
    <title>7DDCA404-4D49-4CC3-A15A-CC157588E977_Color</title>
    <desc>Created with sketchtool.</desc>
    <g id="Essentials" stroke="none" stroke-width="1" fill="none" fill-rule="evenodd">
        <g id="Login-page-01" transform="translate(-1232.000000, -980.000000)">
            <g id="Twitter" transform="translate(1232.000000, 980.000000)">
                <path d="M0,12 C0,5.37258267 5.37258267,0 12,0 C18.6274173,0 24,5.37258267 24,12 C24,18.6274173 18.6274173,24 12,24 C5.37258267,24 0,18.6274173 0,12 Z" id="back" fill="#FFFFFF"></path>
                <path d="M11.6406013,9.75375031 L11.6657826,10.1689774 L11.246095,10.1181333 C9.71843211,9.92323075 8.38382555,9.26225704 7.25066904,8.15216018 L6.69668141,7.60134875 L6.55398763,8.0081018 C6.25181256,8.91482215 6.44486885,9.87238662 7.07440025,10.5164123 C7.41015033,10.8723212 7.33460656,10.9231653 6.75543768,10.7113148 C6.55398763,10.6435226 6.37771884,10.5926785 6.36093133,10.6181005 C6.30217507,10.6774187 6.50362512,11.4485547 6.6631064,11.7536195 C6.88134395,12.1773206 7.32621281,12.5925476 7.81305042,12.8382943 L8.22434427,13.0331968 L7.73750665,13.0416708 C7.26745654,13.0416708 7.25066904,13.0501448 7.30103155,13.2280993 C7.46890659,13.7789107 8.132013,14.3636182 8.87066317,14.6178389 L9.39107579,14.7957933 L8.93781318,15.066962 C8.26631303,15.456767 7.47730034,15.6770916 6.68828766,15.6940397 C6.31056882,15.7025137 6,15.7364098 6,15.7618318 C6,15.8465721 7.02403774,16.3211173 7.61999413,16.5075458 C9.40786329,17.0583572 11.5314825,16.8210846 13.1262954,15.8804681 C14.2594519,15.2110204 15.3926084,13.880599 15.9214148,12.5925476 C16.2068024,11.9061519 16.4921899,10.6519966 16.4921899,10.0503411 C16.4921899,9.66053607 16.5173712,9.60969194 16.9874213,9.14362074 C17.2644151,8.87245204 17.5246214,8.57586127 17.5749839,8.49112105 C17.6589215,8.33011464 17.6505277,8.33011464 17.2224464,8.47417301 C16.5089774,8.72839366 16.4082524,8.69449758 16.76079,8.31316659 C17.0209963,8.04199789 17.3315651,7.55050462 17.3315651,7.40644625 C17.3315651,7.38102418 17.2056589,7.42339429 17.0629651,7.49966049 C16.9118775,7.58440071 16.5761275,7.71151104 16.3243149,7.78777724 L15.8710523,7.93183561 L15.4597585,7.65219288 C15.2331271,7.49966049 14.9141646,7.33018005 14.7462895,7.27933592 C14.3182082,7.16069962 13.6634955,7.17764766 13.2773829,7.31323201 C12.2281639,7.69456299 11.5650575,8.67754953 11.6406013,9.75375031 Z" id="Shape" fill="#122135"></path>
            </g>
        </g>
    </g>
</svg>