<?xml version="1.0" encoding="UTF-8"?>
<svg width="262px" height="70px" viewBox="0 0 262 70" version="1.1" xmlns="http://www.w3.org/2000/svg" xmlns:xlink="http://www.w3.org/1999/xlink">
    <!-- Generator: Sketch 52.5 (67469) - http://www.bohemiancoding.com/sketch -->
    <title>Verta logo</title>
    <desc>Created with Sketch.</desc>
    <g id="Verta-logo" stroke="none" stroke-width="1" fill="none" fill-rule="evenodd">
        <g id="Group" transform="translate(3.000000, 3.000000)">
            <path d="M218.487345,17.3751019 C221.659769,17.3751019 224.329852,17.7713102 226.497675,18.5637387 C228.665498,19.3561672 230.397087,20.4655504 231.692494,21.8919217 C232.9879,23.318293 233.913176,25.0484026 234.468351,27.0823024 C235.023525,29.1162022 235.301108,31.3481756 235.301108,33.7782896 L235.301108,58.8981472 C233.820643,59.2151186 231.586762,59.5981199 228.599396,60.0471627 C225.61203,60.4962055 222.24138,60.7207236 218.487345,60.7207236 C216.002279,60.7207236 213.728743,60.4829986 211.666667,60.0075415 C209.604591,59.5320844 207.846566,58.7660817 206.392538,57.7095104 C204.938511,56.6529391 203.801743,55.2794169 202.9822,53.5889028 C202.162657,51.8983887 201.752891,49.8116917 201.752891,47.3287491 C201.752891,44.9514636 202.21553,42.9440082 203.14082,41.3063226 C204.06611,39.6686371 205.321843,38.3347358 206.908055,37.3045788 C208.494267,36.2744217 210.331601,35.5348329 212.420114,35.0857901 C214.508626,34.6367473 216.689635,34.4122292 218.963206,34.4122292 C220.02068,34.4122292 221.131012,34.478264 222.294234,34.6103354 C223.457456,34.7424068 224.699971,34.9669248 226.021814,35.2838962 L226.021814,33.6990472 C226.021814,32.5896473 225.889632,31.5330918 225.625263,30.5293491 C225.360894,29.5256063 224.898256,28.6407411 224.237334,27.8747269 C223.576413,27.1087127 222.704009,26.5144002 221.620098,26.0917717 C220.536186,25.6691432 219.174708,25.4578321 217.535622,25.4578321 C215.314925,25.4578321 213.279317,25.6163154 211.428736,25.9332868 C209.578156,26.2502582 208.071277,26.6200526 206.908055,27.0426811 L205.718402,19.2769208 C206.934498,18.8542922 208.705741,18.43167 211.032185,18.0090415 C213.35863,17.586413 215.843658,17.3751019 218.487345,17.3751019 Z M219.280447,53.1134481 C222.241376,53.1134481 224.488476,52.9549648 226.021814,52.6379934 L226.021814,42.0195047 C225.493077,41.861019 224.726419,41.7025357 223.721818,41.54405 C222.717217,41.3855643 221.606885,41.3063226 220.390789,41.3063226 C219.333315,41.3063226 218.262638,41.3855643 217.178726,41.54405 C216.094815,41.7025357 215.116665,41.9930885 214.244249,42.415717 C213.371832,42.8383455 212.671266,43.432658 212.142528,44.1986722 C211.613791,44.9646864 211.349426,45.9287932 211.349426,47.0910217 C211.349426,49.36265 212.063211,50.9342763 213.490802,51.8059476 C214.918393,52.677619 216.848255,53.1134481 219.280447,53.1134481 Z" id="Combined-Shape" fill="#26CAB8"></path>
            <path d="M162.641902,17.3751019 C165.814326,17.3751019 168.48441,17.7713102 170.652233,18.5637387 C172.820056,19.3561672 174.551645,20.4655504 175.847051,21.8919217 C177.142458,23.318293 178.067734,25.0484026 178.622908,27.0823024 C179.178083,29.1162022 179.455666,31.3481756 179.455666,33.7782896 L179.455666,58.8981472 C177.975201,59.2151186 175.741319,59.5981199 172.753953,60.0471627 C169.766587,60.4962055 166.395937,60.7207236 162.641902,60.7207236 C160.156837,60.7207236 157.8833,60.4829986 155.821225,60.0075415 C153.759149,59.5320844 152.001124,58.7660817 150.547096,57.7095104 C149.093068,56.6529391 147.9563,55.2794169 147.136757,53.5889028 C146.317214,51.8983887 145.907449,49.8116917 145.907449,47.3287491 C145.907449,44.9514636 146.370087,42.9440082 147.295378,41.3063226 C148.220668,39.6686371 149.4764,38.3347358 151.062612,37.3045788 C152.648824,36.2744217 154.486159,35.5348329 156.574672,35.0857901 C158.663184,34.6367473 160.844193,34.4122292 163.117763,34.4122292 C164.175238,34.4122292 165.28557,34.478264 166.448792,34.6103354 C167.612014,34.7424068 168.854528,34.9669248 170.176372,35.2838962 L170.176372,33.6990472 C170.176372,32.5896473 170.044189,31.5330918 169.779821,30.5293491 C169.515452,29.5256063 169.052814,28.6407411 168.391892,27.8747269 C167.73097,27.1087127 166.858567,26.5144002 165.774655,26.0917717 C164.690744,25.6691432 163.329266,25.4578321 161.69018,25.4578321 C159.469483,25.4578321 157.433875,25.6163154 155.583294,25.9332868 C153.732713,26.2502582 152.225835,26.6200526 151.062612,27.0426811 L149.872959,19.2769208 C151.089055,18.8542922 152.860299,18.43167 155.186743,18.0090415 C157.513187,17.586413 159.998216,17.3751019 162.641902,17.3751019 Z M163.435004,53.1134481 C166.395933,53.1134481 168.643033,52.9549648 170.176372,52.6379934 L170.176372,42.0195047 C169.647634,41.861019 168.880977,41.7025357 167.876376,41.54405 C166.871775,41.3855643 165.761443,41.3063226 164.545347,41.3063226 C163.487872,41.3063226 162.417195,41.3855643 161.333284,41.54405 C160.249372,41.7025357 159.271223,41.9930885 158.398806,42.415717 C157.52639,42.8383455 156.825823,43.432658 156.297086,44.1986722 C155.768349,44.9646864 155.503984,45.9287932 155.503984,47.0910217 C155.503984,49.36265 156.217769,50.9342763 157.645359,51.8059476 C159.07295,52.677619 161.002813,53.1134481 163.435004,53.1134481 Z" id="Combined-Shape" fill="#26CAB8"></path>
            <path d="M22.2861673,59.8490566 C18.3206373,51.2908289 14.5005674,42.3365213 10.8258429,32.9858651 C7.15111836,23.6352089 3.72759545,14.284693 0.555171429,4.93403679 L11.5792898,4.93403679 C12.8482594,8.63203641 14.1436465,12.4092222 15.4654898,16.2657075 C16.7873331,20.1221929 18.1091567,23.9125856 19.431,27.6369995 C20.7528433,31.3614134 22.0746669,34.966909 23.3965102,38.4535943 C24.7183535,41.9402797 26.0137406,45.13636 27.2827102,48.0419311 C28.4988061,45.13636 29.7677567,41.9534866 31.0896,38.4932156 C32.4114433,35.0329445 33.7464851,31.4274489 35.0947653,27.6766208 C36.4430455,23.9257926 37.7780873,20.1221929 39.0999306,16.2657075 C40.421774,12.4092222 41.6907245,8.63203641 42.9068204,4.93403679 L53.613698,4.93403679 C50.3884002,14.284693 46.9516591,23.6352089 43.3033714,32.9858651 C39.6550838,42.3365213 35.8482321,51.2908289 31.882702,59.8490566 L22.2861673,59.8490566 Z" id="Path" fill="#26CAB8"></path>
            <path d="M55.9654045,20.7766825 C57.1181909,19.95962 58.3566087,19.28801 59.6806694,18.7618448 C62.0071137,17.8373449 64.3863961,17.3751019 66.8185878,17.3751019 C72.5289511,17.3751019 76.9834963,19.1448323 80.1823572,22.6843462 C83.3812181,26.2238602 84.9806245,31.5066375 84.9806245,38.5328368 C84.9806245,39.0611225 84.9674063,39.6554349 84.9409694,40.315792 C84.9145326,40.9761491 84.8748779,41.5704615 84.8220041,42.0987472 L57.4599837,42.0987472 C57.7243524,45.4269468 58.9007753,48.0023008 60.9892878,49.8248863 C63.0778003,51.6474718 66.1047761,52.5587509 70.0703062,52.5587509 C72.3967505,52.5587509 74.5248863,52.3474398 76.4547776,51.9248113 C78.3846689,51.5021828 79.9047659,51.0531467 81.0151143,50.5776896 L82.2840776,58.4226925 C81.7553403,58.6868353 81.0283373,58.9641811 80.103047,59.2547382 C79.1777567,59.5452953 78.1202978,59.8094342 76.9306388,60.0471627 C75.7409798,60.2848913 74.458811,60.4829954 73.0840939,60.6414811 C71.7093769,60.7999668 70.3082439,60.8792085 68.8806531,60.8792085 C65.2323655,60.8792085 62.059989,60.3377238 59.3634286,59.2547382 C56.6668682,58.1717526 54.4462047,56.6661611 52.7013715,54.7379184 C50.9565383,52.8096757 49.6611512,50.5380815 48.8151715,47.9230675 C48.1919385,45.9965874 47.7982767,43.9339413 47.6341811,41.7350947 L55.9654045,20.7766825 Z M75.3840899,35.0461689 C75.3840899,33.7254547 75.1990346,32.4707951 74.8289184,31.2821524 C74.4588023,30.0935096 73.9168546,29.063368 73.2030592,28.1916967 C72.4892638,27.3200254 71.6168603,26.6332643 70.5858225,26.1313929 C69.5547847,25.6295215 68.3254888,25.3785896 66.897898,25.3785896 C65.4174335,25.3785896 64.1220464,25.6559354 63.011698,26.2106354 C61.9013496,26.7653353 60.9628549,27.4917172 60.1961858,28.3898028 C59.4295166,29.2878885 58.834696,30.31803 58.4117062,31.4802585 C57.9887163,32.6424869 57.6979151,33.8311118 57.5392939,35.0461689 L75.3840899,35.0461689 Z" id="Combined-Shape" fill="#26CAB8"></path>
            <path d="M114.965411,27.0426811 C114.172305,26.7785383 113.075191,26.5011925 111.674038,26.2106354 C110.272884,25.9200783 108.647041,25.7748019 106.79646,25.7748019 C105.738985,25.7748019 104.615435,25.8804574 103.425776,26.0917717 C102.236117,26.303086 101.403368,26.4879832 100.927505,26.6464689 L100.927505,59.8490566 L91.3309702,59.8490566 L91.3309702,20.3863151 C93.1815509,19.6995437 95.494742,19.0524035 98.270613,18.444875 C101.046484,17.8373465 104.126333,17.5335868 107.510252,17.5335868 C108.144737,17.5335868 108.884958,17.5732076 109.730938,17.6524505 C110.576917,17.7316933 111.422884,17.8373489 112.268864,17.9694203 C113.114844,18.1014917 113.934374,18.259975 114.72748,18.444875 C115.520586,18.629775 116.155062,18.8014652 116.630925,18.9599509 L114.965411,27.0426811 Z" id="Path" fill="#26CAB8"></path>
            <path d="M119.015761,7.46979528 L128.612295,5.88494623 L128.612295,18.4052538 L143.363993,18.4052538 L143.363993,26.4087415 L128.612295,26.4087415 L128.612295,43.287384 C128.612295,46.6155836 129.141025,48.9928334 130.198499,50.4192047 C131.255974,51.845576 133.053654,52.5587509 135.591593,52.5587509 C137.336427,52.5587509 138.88296,52.3738537 140.23124,52.0040538 C141.579521,51.6342538 142.650198,51.2908733 143.443304,50.9739019 L145.029508,58.5811774 C143.919159,59.0566345 142.465153,59.5452914 140.667446,60.0471627 C138.869739,60.5490341 136.754822,60.799966 134.32263,60.799966 C131.361701,60.799966 128.889891,60.4037577 126.907126,59.6113292 C124.924361,58.8189008 123.351391,57.6698967 122.188169,56.1642825 C121.024947,54.6586684 120.205416,52.8361102 119.729553,50.6965533 C119.253689,48.5569964 119.015761,46.1137118 119.015761,43.3666264 L119.015761,7.46979528 Z" id="Path" fill="#26CAB8"></path>
            <path d="M198.178403,54.6190547 C198.178403,56.4680545 197.557146,57.9736461 196.314613,59.1358745 C195.07208,60.298103 193.57842,60.8792085 191.833587,60.8792085 C190.03588,60.8792085 188.529001,60.298103 187.312905,59.1358745 C186.096809,57.9736461 185.48877,56.4680545 185.48877,54.6190547 C185.48877,52.7700549 186.096809,51.2512564 187.312905,50.0626137 C188.529001,48.8739709 190.03588,48.2796585 191.833587,48.2796585 C193.57842,48.2796585 195.07208,48.8739709 196.314613,50.0626137 C197.557146,51.2512564 198.178403,52.7700549 198.178403,54.6190547 Z" id="Path" fill="#6863FF"></path>
            <polygon id="Path" fill="#26CAB8" points="252.913502 59.8490566 243.316968 59.8490566 243.316968 18.4052538 252.913502 18.4052538"></polygon>
            <path d="M253.944535,6.28115849 C253.944535,8.07732974 253.362933,9.50367962 252.199711,10.5602509 C251.036488,11.6168223 249.661792,12.1451 248.07558,12.1451 C246.436494,12.1451 245.035361,11.6168223 243.872139,10.5602509 C242.708917,9.50367962 242.127315,8.07732974 242.127315,6.28115849 C242.127315,4.43215868 242.708917,2.97939491 243.872139,1.92282358 C245.035361,0.866252264 246.436494,0.337974528 248.07558,0.337974528 C249.661792,0.337974528 251.036488,0.866252264 252.199711,1.92282358 C253.362933,2.97939491 253.944535,4.43215868 253.944535,6.28115849 Z" id="Path" fill="#6863FF"></path>
        </g>
    </g>
</svg>