<?xml version="1.0" encoding="UTF-8"?>
<svg width="76px" height="24px" viewBox="0 0 76 24" version="1.1" xmlns="http://www.w3.org/2000/svg" xmlns:xlink="http://www.w3.org/1999/xlink">
    <title>verta-logo-purple</title>
    <g id="Symbols" stroke="none" stroke-width="1" fill="none" fill-rule="evenodd">
        <g id="verta-logo-purple" fill="#514EB5">
            <path d="M28.0845333,5.27275909 C30.5047303,5.27275909 32.3926394,6.02297121 33.7485485,7.52310758 C35.1044576,9.02324394 35.7821242,11.2623652 35.7821242,14.2401833 C35.7821242,14.464153 35.7766545,14.716047 35.7654273,14.9958652 C35.7542,15.2756833 35.737503,15.5275773 35.7150485,15.751547 L24.1181394,15.751547 C24.2301242,17.162153 24.7287303,18.2537894 25.6139576,19.0261682 C26.4991848,19.798547 27.7819727,20.1848803 29.462897,20.1848803 C30.4488818,20.1848803 31.3508061,20.09535 32.1686697,19.9162894 C32.9865333,19.7372288 33.6310939,19.546653 34.1014879,19.3451379 L34.6395333,22.6701379 C34.4152758,22.7821227 34.1072455,22.8995773 33.7148667,23.0227894 C33.3227758,23.1460015 32.8745485,23.2579864 32.3704727,23.3587439 C31.8661091,23.4595015 31.3228818,23.5435621 30.7402152,23.6106379 C30.1575485,23.6777136 29.5636545,23.7113955 28.9585333,23.7113955 C27.4123364,23.7113955 26.0676545,23.4819561 24.9250636,23.0227894 C23.781897,22.5639106 22.8408212,21.9256833 22.1012606,21.1083955 C21.3617,20.2911076 20.8127152,19.3284409 20.4543061,18.2201076 C20.1900333,17.4036833 20.0233515,16.5293955 19.9536848,15.5975318 L23.4848061,6.71474394 C23.9733364,6.36842576 24.4981394,6.08371364 25.0592152,5.86060758 C26.0454879,5.46880455 27.0539273,5.27275909 28.0845333,5.27275909 Z M54.274853,0.403116667 L54.274853,5.70958636 L60.5270045,5.70958636 L60.5270045,9.10166212 L54.274853,9.10166212 L54.274853,16.25545 C54.274853,17.6660561 54.4988227,18.6736318 54.94705,19.2778894 C55.3952773,19.8827227 56.1572924,20.1849955 57.2328076,20.1849955 C57.9723682,20.1849955 58.6278682,20.1064045 59.1990197,19.9497985 C59.770747,19.7929045 60.2244439,19.6475258 60.5606864,19.5130864 L61.2328833,22.7373288 C60.7622015,22.9388439 60.145853,23.1458288 59.3841258,23.3585712 C58.6221106,23.5713136 57.7256561,23.6778288 56.69505,23.6778288 C55.4401864,23.6778288 54.3923076,23.5099955 53.5519894,23.1740409 C52.7116712,22.8380864 52.0449439,22.3512833 51.5520955,21.7130561 C51.0589591,21.0748288 50.7114894,20.30245 50.5099742,19.3956318 C50.3084591,18.4888136 50.2074136,17.4533136 50.2074136,16.2891318 L50.2074136,1.07473788 L54.274853,0.403116667 Z M68.6976955,5.27293182 C70.0420894,5.27293182 71.1740288,5.44076515 72.09265,5.7767197 C73.0112712,6.11267424 73.7453621,6.5827803 74.2940591,7.18732576 C74.8433318,7.79187121 75.2354227,8.52509848 75.4706197,9.38700758 C75.7061045,10.2492045 75.823847,11.1951742 75.823847,12.2252045 L75.823847,22.8718258 C75.1962712,23.0059773 74.2494379,23.1683409 72.983347,23.3586288 C71.7172561,23.5489167 70.2885136,23.6442045 68.6976955,23.6442045 C67.644347,23.6442045 66.6805288,23.543447 65.8068167,23.3419318 C64.9328167,23.1404167 64.1877864,22.8156894 63.57115,22.3680379 C62.9550894,21.9200985 62.4734682,21.3380076 62.1259985,20.6214773 C61.7788167,19.904947 61.6049379,19.0205833 61.6049379,17.9680985 C61.6049379,16.9605227 61.8009833,16.1098409 62.1930742,15.4157652 C62.585453,14.7216894 63.117453,14.1562955 63.7899379,13.7195833 C64.4621348,13.2828712 65.240847,12.9696591 66.1260742,12.7790833 C67.0113015,12.5887955 67.9356803,12.4937955 68.8992106,12.4937955 C69.3474379,12.4937955 69.8181197,12.5217197 70.3109682,12.5778561 C70.8038167,12.6337045 71.3306348,12.7289924 71.890847,12.8631439 L71.890847,12.1915227 C71.890847,11.7214167 71.8347106,11.2734773 71.7230136,10.8479924 C71.6107409,10.4225076 71.4146955,10.0476894 71.1345894,9.72296212 C70.8544833,9.39823485 70.484847,9.14634091 70.0251045,8.9672803 C69.5659379,8.7882197 68.9890288,8.69868939 68.2943773,8.69868939 C67.3530136,8.69868939 66.4902409,8.76576515 65.7057712,8.90020455 C64.9215894,9.03464394 64.2827864,9.19125 63.7899379,9.37031061 L63.2855742,6.07899242 C63.8011652,5.89993182 64.551953,5.72058333 65.53765,5.54152273 C66.5239227,5.36246212 67.5769833,5.27293182 68.6976955,5.27293182 Z M45.3310636,5.34006515 C45.5999424,5.34006515 45.9137303,5.35705 46.2721394,5.39044394 C46.6308364,5.42412576 46.9892455,5.46874697 47.3479424,5.52488333 C47.7063515,5.58073182 48.0538212,5.64780758 48.3897758,5.72639848 C48.7260182,5.80470152 48.994897,5.87753485 49.1967,5.94461061 L48.4908212,9.37036818 C48.1545788,9.25838333 47.6896545,9.14092879 47.0957606,9.01771667 C46.5018667,8.89450455 45.8129727,8.83289848 45.028503,8.83289848 C44.5802758,8.83289848 44.1041242,8.87780758 43.6000485,8.96733788 C43.0956848,9.05686818 42.7427455,9.13517121 42.5412303,9.20253485 L42.5412303,23.2746258 L38.4737909,23.2746258 L38.4737909,6.54915606 C39.2579727,6.25811061 40.2384879,5.98376212 41.4150485,5.72639848 C42.5916091,5.46874697 43.8968515,5.34006515 45.3310636,5.34006515 Z M4.67256061,0 C5.21031818,1.5675 5.75930303,3.16810606 6.31951515,4.80268182 C6.87972727,6.43725758 7.44022727,8.04362121 8.00015152,9.62234848 C8.56065152,11.2007879 9.12057576,12.7288485 9.68107576,14.2065303 C10.2412879,15.6845 10.7902727,17.0389697 11.3280303,18.2705152 C11.8433333,17.0389697 12.3813788,15.6899697 12.9415909,14.2235152 C13.501803,12.7567727 14.0677727,11.2287121 14.6389242,9.63904545 C15.2106515,8.04937879 15.7763333,6.43725758 16.3365455,4.80268182 C16.8967576,3.16810606 17.4345152,1.5675 17.9501061,0 L22.4879394,0 C21.1210909,3.96293939 19.6644242,7.92616667 18.1182273,11.8893939 C16.5717424,15.8523333 14.9584697,19.6474394 13.2775455,23.2747121 L9.21039394,23.2747121 C7.52975758,19.6474394 5.91072727,15.8523333 4.35301515,11.8893939 C2.79559091,7.92616667 1.34468182,3.96293939 0,0 L4.67256061,0 Z M69.5043318,15.4157652 C69.0561045,15.4157652 68.6024076,15.4491591 68.142953,15.5165227 C67.6837864,15.5835985 67.268953,15.7068106 66.8993167,15.8858712 C66.5293924,16.0652197 66.2325894,16.3171136 66.0083318,16.641553 C65.7843621,16.9662803 65.6720894,17.3747803 65.6720894,17.8673409 C65.6720894,18.8302955 65.9749379,19.496447 66.5800591,19.8657955 C67.1848924,20.2351439 68.0027561,20.4199621 69.03365,20.4199621 C70.2885136,20.4199621 71.2411045,20.3528864 71.890847,20.218447 L71.890847,15.7180379 C71.6665894,15.6509621 71.3418621,15.5835985 70.9160894,15.5165227 C70.4903167,15.4491591 70.0199227,15.4157652 69.5043318,15.4157652 Z M28.1182152,8.66512273 C27.4909273,8.66512273 26.9416545,8.78257727 26.4712606,9.01777424 C26.0005788,9.25297121 25.6027303,9.56071364 25.278003,9.94128939 C24.9529879,10.3218652 24.7008061,10.7585773 24.5214576,11.2511379 C24.342397,11.7436985 24.218897,12.2474864 24.1518212,12.7625015 L31.7149727,12.7625015 C31.7149727,12.2028652 31.6366697,11.6708652 31.4797758,11.1670773 C31.3228818,10.6632894 31.0931545,10.2268652 30.7905939,9.85722879 C30.4880333,9.4878803 30.118397,9.19683485 29.681397,8.98409242 C29.2441091,8.77135 28.7233364,8.66512273 28.1182152,8.66512273 Z"></path>
        </g>
    </g>
</svg>