<?xml version="1.0" encoding="UTF-8" standalone="yes"?>
<svg xmlns="http://www.w3.org/2000/svg" xmlns:xlink="http://www.w3.org/1999/xlink" width="96px" height="96px" viewBox="0 0 96 96" version="1.1" fill="currentColor">
  <g id="surface39628">
    <path style=" stroke:none;fill-rule:nonzero;fill:currentColor;fill-opacity:1;" d="M 48 8 C 25.878906 8 8 25.878906 8 48 C 8 70.121094 25.878906 88 48 88 C 70.121094 88 88 70.121094 88 48 C 88 25.878906 70.121094 8 48 8 Z M 66.828125 61.171875 C 68.390625 62.734375 68.390625 65.265625 66.828125 66.828125 C 66.046875 67.609375 65.023438 68 64 68 C 62.976562 68 61.953125 67.609375 61.171875 66.828125 L 48 53.65625 L 34.828125 66.828125 C 34.046875 67.609375 33.023438 68 32 68 C 30.976562 68 29.953125 67.609375 29.171875 66.828125 C 27.609375 65.265625 27.609375 62.734375 29.171875 61.171875 L 42.34375 48 L 29.171875 34.828125 C 27.609375 33.265625 27.609375 30.734375 29.171875 29.171875 C 30.734375 27.609375 33.265625 27.609375 34.828125 29.171875 L 48 42.34375 L 61.171875 29.171875 C 62.734375 27.609375 65.265625 27.609375 66.828125 29.171875 C 68.390625 30.734375 68.390625 33.265625 66.828125 34.828125 L 53.65625 48 Z M 66.828125 61.171875 "/>
  </g>
</svg>
