<svg id="Layer_1" data-name="Layer 1" xmlns="http://www.w3.org/2000/svg" viewBox="0 0 24 24"><title>datasets-2-24px</title><path fill="currentColor" d="M22,4.47C21.74,3.1,17.37,2,12,2S2.26,3.1,2,4.47H2V19.29H2s0,.08,0,.12C2,20.84,6.48,22,12,22s10-1.16,10-2.59c0,0,0-.08,0-.12h0V4.47ZM9,15a21.08,21.08,0,0,1-5-.91v-3A21,21,0,0,0,9,12c.94.08,1.94.12,3,.12s2,0,3-.12a21.25,21.25,0,0,0,5-.93v3A21.31,21.31,0,0,1,15,15c-.94.08-1.94.12-3,.12S10,15,9,15ZM20,6.13v3A21.31,21.31,0,0,1,15,10c-.94.08-1.94.12-3,.12s-2,0-3-.12a21.6,21.6,0,0,1-5-.91v-3a21,21,0,0,0,5,.92c.94.07,1.94.12,3,.12s2,0,3-.12A21.77,21.77,0,0,0,20,6.13ZM4,19V16a21,21,0,0,0,5,.92c.94.08,1.94.12,3,.12s2,0,3-.12A20.76,20.76,0,0,0,20,16v3a26.56,26.56,0,0,1-8,1A26.36,26.36,0,0,1,4,19Z"/></svg>