<?xml version="1.0" encoding="UTF-8" standalone="yes"?>
<svg width="100px" height="100px" viewBox="0 0 100 100" version="1.1" fill="#fff">
  <g id="surface265211">
    <path style=" stroke:none;fill-rule:nonzero;fill:#fff;fill-opacity:1;" d="M 36 83.15625 C 36 84.9375 35.050781 86 33.695312 86 C 33.214844 86 32.683594 85.867188 32.125 85.585938 L 10.324219 74.546875 C 9.046875 73.898438 8 72.183594 8 70.734375 L 8 16.621094 C 8 15.195312 8.761719 14.347656 9.84375 14.347656 C 10.230469 14.347656 10.65625 14.457031 11.101562 14.683594 L 11.867188 15.066406 C 11.871094 15.070312 11.871094 15.070312 11.875 15.070312 L 35.894531 27.234375 C 35.941406 27.257812 35.96875 27.296875 36 27.328125 Z M 61.175781 17.761719 L 62.636719 15.355469 C 63.160156 14.492188 64.128906 14 65.097656 14 C 65.328125 14 65.558594 14.035156 65.785156 14.09375 C 65.960938 14.132812 66.140625 14.195312 66.324219 14.289062 L 91.664062 27.117188 C 91.667969 27.121094 91.667969 27.121094 91.671875 27.121094 L 91.695312 27.132812 C 91.710938 27.140625 91.710938 27.160156 91.726562 27.175781 C 91.855469 27.269531 91.90625 27.441406 91.820312 27.585938 L 66.585938 69.113281 L 64.011719 73.355469 L 47.292969 40.613281 Z M 40 61.214844 L 40 35.128906 L 57.964844 70.3125 L 41.804688 62.128906 Z M 92 83.15625 C 92 84.832031 91.007812 85.785156 89.542969 85.785156 C 88.890625 85.785156 88.140625 85.59375 87.347656 85.191406 L 83.734375 83.363281 L 67.578125 75.179688 L 92 34.988281 Z M 92 83.15625 "/>
  </g>
</svg>
