<?xml version="1.0" encoding="UTF-8"?>
<svg width="20px" height="20px" viewBox="0 0 20 20" version="1.1" xmlns="http://www.w3.org/2000/svg" xmlns:xlink="http://www.w3.org/1999/xlink">
    <!-- Generator: Sketch 58 (84663) - https://sketch.com -->
    <title>personal-workspace-24px</title>
    <desc>Created with Sketch.</desc>
    <g id="Buttons,-Icon-buttons,-Links,-Modals" stroke="none" stroke-width="1" fill="none" fill-rule="evenodd">
        <g id="SVGs" transform="translate(-550.000000, -387.000000)">
            <g id="personal-workspace-24px" transform="translate(548.000000, 385.000000)">
                <path d="M12,2 C17.52,2 22,6.48 22,12 C22,17.52 17.52,22 12,22 C6.48,22 2,17.52 2,12 C2,6.48 6.48,2 12,2 Z M12,13 C9.40593527,13 7.27326304,14.1852737 7.02428557,15.7024398 L7.00611913,15.8502697 L6.99995094,16 L6.99995094,19.75 C8.24526359,20.6824544 9.91129557,21.1486816 11.9980469,21.1486816 C13.9620481,21.1486816 15.554526,20.7356914 16.7754806,19.9097111 L17.0000558,19.75 L17.0000558,16 L16.9938809,15.8502697 C16.8638486,14.2629764 14.6777442,13 12,13 Z M12,7 C10.8898305,7 10,7.88983051 10,9 C10,10.1016949 10.8983051,11 12,11 C13.1016949,11 14,10.1016949 14,9 C14,7.89830508 13.1016949,7 12,7 Z" id="Shape" fill="#FFFFFF" fill-rule="nonzero"></path>
                <polygon id="Path" points="0 0 24 0 24 24 0 24"></polygon>
            </g>
        </g>
    </g>
</svg>