<?xml version="1.0" encoding="UTF-8"?>
<svg width="60px" height="60px" viewBox="0 0 60 60" version="1.1" xmlns="http://www.w3.org/2000/svg" xmlns:xlink="http://www.w3.org/1999/xlink">
    <g id="Share" stroke="none" stroke-width="1" fill="none" fill-rule="evenodd">
        <g id="Share&amp;Collaboration_States" transform="translate(-901.000000, -169.000000)">
            <g id="read-only-icon" transform="translate(901.000000, 169.000000)">
                <circle id="Icon-Check_SVG" fill="#DDDDDD" cx="30" cy="30" r="30"></circle>
                <path d="M37.8323583,29.4453 C35.9465523,26.6171 33.6925451,24 30.0000333,24 C26.3075215,24 24.0535143,26.6171 22.1677083,29.4453 C21.9440972,29.7812969 21.9440972,30.2187031 22.1677083,30.5547 C24.0535143,33.3829 26.3075215,36 30.0000333,36 C33.6925451,36 35.9465523,33.3827 37.8323583,30.5545 C38.0558806,30.2185491 38.0558806,29.7812509 37.8323583,29.4453 Z M30.0000333,34 C27.8779265,34 26.2216212,32.8682 24.2108148,30 C26.2216212,27.1317 27.8779265,26 30.0000333,26 C32.12214,26 33.7784453,27.1318 35.7892517,30 C33.7784453,32.8683 32.12214,34 30.0000333,34 Z" id="Shape" fill-opacity="0.5" fill="#000000" fill-rule="nonzero"></path>
                <path d="M30,28 C28.8954305,28 28,28.8954305 28,30 C28,31.1045695 28.8954305,32 30,32 C31.1045695,32 32,31.1045695 32,30 C31.9985127,28.8960472 31.1039528,28.0014873 30,28 L30,28 Z" id="Path" fill-opacity="0.5" fill="#000000"></path>
            </g>
        </g>
    </g>
</svg>