<?xml version="1.0" encoding="UTF-8"?>
<svg width="19px" height="19px" viewBox="0 0 19 19" version="1.1" xmlns="http://www.w3.org/2000/svg" xmlns:xlink="http://www.w3.org/1999/xlink">
    <!-- Generator: Sketch 64 (93537) - https://sketch.com -->
    <title>unarchive-24px</title>
    <desc>Created with Sketch.</desc>
    <g id="Navigation" stroke="none" stroke-width="1" fill="none" fill-rule="evenodd">
        <g id="Intuit-Overview-1" transform="translate(-30.000000, -271.000000)">
            <g id="Left-Nav-Copy" transform="translate(0.000000, 60.000000)">
                <g id="unarchive-24px" transform="translate(27.000000, 208.000000)">
                    <polygon id="Path" points="0 0 24 0 24 24 0 24"></polygon>
                    <path d="M21.5144444,5.35388889 L20.0472222,3.58055556 C19.7622222,3.22166667 19.3294444,3 18.8333333,3 L6.16666667,3 C5.67055556,3 5.23777778,3.22166667 4.94222222,3.58055556 L3.48555556,5.35388889 C3.17944444,5.71277778 3,6.18777778 3,6.69444444 L3,19.8888889 C3,21.05 3.95,22 5.11111111,22 L19.8888889,22 C21.05,22 22,21.05 22,19.8888889 L22,6.69444444 C22,6.18777778 21.8205556,5.71277778 21.5144444,5.35388889 Z M6.42,5.11111111 L18.58,5.11111111 L19.4561111,6.16666667 L5.55444444,6.16666667 L6.42,5.11111111 Z M5.11111111,19.8888889 L5.11111111,8.27777778 L19.8888889,8.27777778 L19.8888889,19.8888889 L5.11111111,19.8888889 Z M8.27777778,14.6111111 L10.9694444,14.6111111 L10.9694444,17.7777778 L14.0305556,17.7777778 L14.0305556,14.6111111 L16.7222222,14.6111111 L12.5,10.3888889 L8.27777778,14.6111111 Z" id="Shape" fill="currentColor" fill-rule="nonzero"></path>
                </g>
            </g>
        </g>
    </g>
</svg>