<?xml version="1.0" encoding="utf-8"?>
<!-- Generator: Adobe Illustrator 24.0.3, SVG Export Plug-In . SVG Version: 6.00 Build 0)  -->
<svg version="1.1" id="Layer_1" xmlns="http://www.w3.org/2000/svg" xmlns:xlink="http://www.w3.org/1999/xlink" x="0px" y="0px"
	 viewBox="0 0 24 24" style="enable-background:new 0 0 24 24;" xml:space="preserve">
<style type="text/css">
	.st0{fill:none;}
	.st1{clip-path:url(#SVGID_2_);}
	.st2{clip-path:url(#SVGID_4_);}
</style>
<path class="st0" d="M0,0h24v24H0V0z" fill="transparent" />
<g>
	<defs>
		<path id="SVGID_1_" d="M-558.4-360.9h-16v-12h5.2l1.4,1.4l0.6,0.6h8.8V-360.9z M-558.4-372.9h-8l-2-2h-6c-1.1,0-2,0.9-2,2v12
			c0,1.1,0.9,2,2,2h16c1.1,0,2-0.9,2-2v-10C-556.4-372-557.3-372.9-558.4-372.9z M-578.4-370.9h-2v5v9c0,1.1,0.9,2,2,2h18v-2h-18
			V-370.9z"/>
	</defs>
	<clipPath id="SVGID_2_">
		<use xlink:href="#SVGID_1_"  style="overflow:visible;"/>
	</clipPath>
	<g class="st1">
		<defs>
			<rect id="SVGID_3_" x="-708.4" y="-499.9" width="1440" height="1024"/>
		</defs>
		<clipPath id="SVGID_4_">
			<use xlink:href="#SVGID_3_"  style="overflow:visible;"/>
		</clipPath>
	</g>
</g>
<g>
	<path fill="currentColor" d="M19.6,4.4h-5.9l-2-1.9h-4c-1.1,0-2.1,0.8-2.1,1.9l0,11c0,1.1,0.9,2,2,2h12c1.1,0,2-0.9,2-2v-9C21.6,5.3,20.7,4.4,19.6,4.4z
		 M15.2,6.6h2v3l-1-0.5l-1,0.5V6.6z M19.6,15.4h-12v-11h3.2l1.9,2.1h1v5l2.5-1l2.5,1v-5h0.9V15.4z"/>
	<path fill="currentColor" d="M3.7,6.6h-2v4h0l0,9c0,1.1,0.9,2,2,2h15v-2h-15V6.6z"/>
</g>
</svg>
