<svg id="icons" enable-background="new 0 0 64 64" height="512" viewBox="0 0 64 64" width="512" xmlns="http://www.w3.org/2000/svg">
<path fill="currentColor" d="m55.817 33h7.183c.553 0 1-.447 1-1s-.447-1-1-1h-7.183c-.302-.848-.968-1.514-1.815-1.815v-7.185h3c.553 0 1-.447 1-1s-.447-1-1-1h-.28l-.334-1.002h2.604c1.654 0 3-1.346 3-3v-8.993c0-1.654-1.346-3-3-3h-11.982c-1.654 0-3 1.346-3 3v8.993c0 1.654 1.346 3 3 3h2.606l-.334 1.002h-.278c-.553 0-1 .447-1 1s.447 1 1 1h2.998v7.185c-.848.302-1.514.968-1.815 1.815h-6.187v-4.99c0-.004.002-.006.002-.01v-3.003c0-.553-.447-1-1-1h-13.97l-.061-.243c-.11-.445-.511-.758-.97-.758h-7.004c-.266 0-.52.105-.707.293-.188.188-.293.442-.293.708l.003 9.003h-6.185c-.302-.848-.968-1.514-1.815-1.815v-7.185h3c.553 0 1-.447 1-1s-.447-1-1-1h-.28l-.334-1.002h2.606c1.654 0 3-1.346 3-3v-8.993c0-1.654-1.346-3-3-3h-11.982c-1.654 0-3 1.346-3 3v8.993c0 1.654 1.346 3 3 3h2.604l-.334 1.002h-.278c-.553 0-1 .447-1 1s.447 1 1 1h2.998v7.185c-.848.301-1.514.967-1.815 1.815h-7.185c-.553 0-1 .447-1 1s.447 1 1 1h7.185c.302.848.968 1.514 1.815 1.815v7.185h-4.99c-1.654 0-3 1.346-3 3v8.993c0 1.654 1.346 3 3 3h2.604l-.334 1.002h-.278c-.553 0-1 .447-1 1s.447 1 1 1h7.998c.553 0 1-.447 1-1s-.447-1-1-1h-.28l-.334-1.002h2.606c1.654 0 3-1.346 3-3v-8.993c0-1.654-1.346-3-3-3h-4.992v-7.185c.848-.302 1.514-.968 1.815-1.815h6.185l.002 7c0 .553.447 1 1 1h21.998c.553 0 1-.447 1-1v-7h6.187c.302.848.968 1.514 1.815 1.815v7.185h-4.992c-1.654 0-3 1.346-3 3v8.993c0 1.654 1.346 3 3 3h2.606l-.334 1.002h-.278c-.553 0-1 .447-1 1s.447 1 1 1h7.998c.553 0 1-.447 1-1s-.447-1-1-1h-.28l-.334-1.002h2.604c1.654 0 3-1.346 3-3v-8.993c0-1.654-1.346-3-3-3h-4.99v-7.185c.848-.301 1.514-.967 1.815-1.815zm-8.807-26.995h11.982c.552 0 1 .448 1 1v6.994h-13.982v-6.994c0-.552.448-1 1-1zm-1 9.994h13.982c-.001.552-.448.999-1 .999h-11.982c-.552 0-.999-.447-1-.999zm5.715 2.999h2.555l.334 1.002h-1.598c-.005 0-.01-.003-.015-.003s-.009.003-.014.003h-1.597zm-46.715-12.993h11.982c.552 0 1 .448 1 1v6.994h-13.982v-6.994c0-.552.448-1 1-1zm-1 9.994h13.982c-.001.552-.448.999-1 .999h-11.982c-.552 0-.999-.447-1-.999zm5.713 2.999h2.555l.334 1.002h-1.598c-.005 0-.01-.003-.015-.003s-.009.003-.014.003h-1.597zm2.889 38.997h-3.224l.335-1.002h2.555zm4.38-3.002h-11.982c-.552 0-.999-.448-1-.999h13.982c-.001.551-.448.999-1 .999zm1-9.993v6.994h-13.982v-6.994c0-.552.448-1 1-1h5.966c.009 0 .016.005.024.005s.016-.005.024-.005h5.968c.552 0 1 .448 1 1zm-6.99-12s-.001-.001-.002-.001-.002.001-.002.001c-.551-.002-.998-.449-.998-1 0-.549.444-.994.992-.998.003 0 .005.001.008.001s.005-.001.008-.001c.548.004.992.449.992.998 0 .551-.447.998-.998 1zm31-9.003v1.003h-12.219l-.251-1.003zm-.002 15.003h-19.998l-.003-16.004h5.222l.812 3.246c.11.445.511.758.97.758h12.997zm12.614 18.995h-3.224l.335-1.002h2.555zm4.378-3.002h-11.982c-.552 0-.999-.448-1-.999h13.982c-.001.551-.448.999-1 .999zm1-9.993v6.994h-13.982v-6.994c0-.552.448-1 1-1h5.968c.009 0 .016.005.024.005s.016-.005.024-.005h5.966c.552 0 1 .448 1 1zm-6.998-13.998c.003 0 .005.001.008.001s.005-.001.008-.001c.548.004.992.449.992.998 0 .551-.447.998-.998 1 0 0-.001-.001-.002-.001s-.002.001-.002.001c-.551-.002-.998-.449-.998-1 0-.549.444-.994.992-.998z"/>
</svg>