<?xml version="1.0" encoding="iso-8859-1"?>
<!DOCTYPE svg PUBLIC "-//W3C//DTD SVG 1.1//EN" "http://www.w3.org/Graphics/SVG/1.1/DTD/svg11.dtd">
<svg version="1.1" id="Capa_1" xmlns="http://www.w3.org/2000/svg" xmlns:xlink="http://www.w3.org/1999/xlink" x="0px" y="0px"
	 width="44.238px" height="44.238px" viewBox="0 0 44.238 44.238" style="enable-background:new 0 0 44.238 44.238;"
	 xml:space="preserve">
<g>
	<g>
		<path fill="currentColor" d="M22.119,44.237C9.922,44.237,0,34.315,0,22.12C0,9.924,9.922,0.001,22.119,0.001S44.238,9.923,44.238,22.12
			S34.314,44.237,22.119,44.237z M22.119,1.501C10.75,1.501,1.5,10.751,1.5,22.12s9.25,20.619,20.619,20.619
			s20.619-9.25,20.619-20.619S33.488,1.501,22.119,1.501z"/>
		<g>
			<path fill="currentColor" d="M31.434,22.869H12.805c-0.414,0-0.75-0.336-0.75-0.75s0.336-0.75,0.75-0.75h18.628c0.414,0,0.75,0.336,0.75,0.75
				S31.848,22.869,31.434,22.869z"/>
		</g>
		<g>
			<path fill="currentColor" d="M22.119,32.183c-0.414,0-0.75-0.336-0.75-0.75V12.806c0-0.414,0.336-0.75,0.75-0.75s0.75,0.336,0.75,0.75v18.626
				C22.869,31.847,22.533,32.183,22.119,32.183z"/>
		</g>
	</g>
</g>
<g>
</g>
<g>
</g>
<g>
</g>
<g>
</g>
<g>
</g>
<g>
</g>
<g>
</g>
<g>
</g>
<g>
</g>
<g>
</g>
<g>
</g>
<g>
</g>
<g>
</g>
<g>
</g>
<g>
</g>
</svg>
