<?xml version="1.0" encoding="UTF-8" standalone="yes"?>
<svg  width="64px" height="64px" viewBox="0 0 64 64" version="1.1" fill="#fff">
  <g id="surface265592">
    <path style=" stroke:none;fill-rule:nonzero;fill:#fff;fill-opacity:1;" d="M 56 17.113281 C 54.234375 17.898438 52.335938 18.425781 50.34375 18.664062 C 52.378906 17.445312 53.9375 15.515625 54.675781 13.214844 C 52.773438 14.34375 50.664062 15.164062 48.421875 15.605469 C 46.625 13.691406 44.0625 12.496094 41.230469 12.496094 C 35.792969 12.496094 31.382812 16.90625 31.382812 22.34375 C 31.382812 23.117188 31.472656 23.867188 31.636719 24.589844 C 23.453125 24.179688 16.199219 20.257812 11.339844 14.296875 C 10.492188 15.753906 10.007812 17.445312 10.007812 19.25 C 10.007812 22.664062 11.746094 25.679688 14.386719 27.445312 C 12.773438 27.394531 11.257812 26.953125 9.929688 26.214844 C 9.929688 26.257812 9.929688 26.296875 9.929688 26.339844 C 9.929688 31.109375 13.320312 35.089844 17.828125 35.992188 C 17.003906 36.21875 16.132812 36.339844 15.230469 36.339844 C 14.597656 36.339844 13.980469 36.277344 13.378906 36.164062 C 14.632812 40.074219 18.269531 42.925781 22.578125 43.003906 C 19.210938 45.644531 14.964844 47.21875 10.351562 47.21875 C 9.554688 47.21875 8.773438 47.175781 8 47.082031 C 12.359375 49.875 17.535156 51.507812 23.097656 51.507812 C 41.210938 51.507812 51.113281 36.5 51.113281 23.484375 C 51.113281 23.058594 51.105469 22.632812 51.085938 22.210938 C 53.011719 20.820312 54.679688 19.089844 56 17.113281 Z M 56 17.113281 "/>
  </g>
</svg>
