<?xml version="1.0" encoding="UTF-8"?>
<svg xmlns="http://www.w3.org/2000/svg" xmlns:xlink="http://www.w3.org/1999/xlink" viewBox="0 0 50 50" version="1.1" width="50px" height="50px" fill="currentColor">
<g id="surface1">
<path style=" " fill="currentColor" d="M 12.90625 2.96875 C 12.863281 2.976563 12.820313 2.988281 12.78125 3 C 12.75 3.007813 12.71875 3.019531 12.6875 3.03125 C 12.65625 3.039063 12.625 3.050781 12.59375 3.0625 C 12.527344 3.097656 12.464844 3.140625 12.40625 3.1875 C 12.363281 3.214844 12.320313 3.246094 12.28125 3.28125 C 12.234375 3.328125 12.191406 3.382813 12.15625 3.4375 L 4.28125 11.28125 C 3.882813 11.679688 3.882813 12.320313 4.28125 12.71875 C 4.679688 13.117188 5.320313 13.117188 5.71875 12.71875 L 12 6.4375 L 12 38 C 11.996094 38.359375 12.183594 38.695313 12.496094 38.878906 C 12.808594 39.058594 13.191406 39.058594 13.503906 38.878906 C 13.816406 38.695313 14.003906 38.359375 14 38 L 14 6.4375 L 20.28125 12.71875 C 20.679688 13.117188 21.320313 13.117188 21.71875 12.71875 C 22.117188 12.320313 22.117188 11.679688 21.71875 11.28125 L 13.84375 3.4375 C 13.769531 3.324219 13.675781 3.230469 13.5625 3.15625 C 13.449219 3.078125 13.320313 3.027344 13.1875 3 C 13.097656 2.976563 13 2.964844 12.90625 2.96875 Z M 37 3 C 36.449219 3 36 3.449219 36 4 C 36 4.550781 36.449219 5 37 5 C 37.550781 5 38 4.550781 38 4 C 38 3.449219 37.550781 3 37 3 Z M 37 7 C 36.449219 7 36 7.449219 36 8 C 36 8.550781 36.449219 9 37 9 C 37.550781 9 38 8.550781 38 8 C 38 7.449219 37.550781 7 37 7 Z M 36.90625 10.96875 C 36.863281 10.976563 36.820313 10.988281 36.78125 11 C 36.316406 11.105469 35.988281 11.523438 36 12 L 36 43.5625 L 29.71875 37.28125 C 29.476563 37.03125 29.121094 36.925781 28.78125 37 C 28.40625 37.066406 28.105469 37.339844 28 37.703125 C 27.894531 38.070313 28.003906 38.460938 28.28125 38.71875 L 36.15625 46.5625 C 36.175781 46.59375 36.195313 46.625 36.21875 46.65625 L 36.28125 46.71875 C 36.300781 46.742188 36.320313 46.761719 36.34375 46.78125 C 36.355469 46.78125 36.363281 46.78125 36.375 46.78125 C 36.441406 46.84375 36.515625 46.894531 36.59375 46.9375 C 36.605469 46.9375 36.613281 46.9375 36.625 46.9375 C 36.644531 46.949219 36.667969 46.960938 36.6875 46.96875 C 36.699219 46.96875 36.707031 46.96875 36.71875 46.96875 C 36.75 46.980469 36.78125 46.992188 36.8125 47 C 36.917969 47.015625 37.019531 47.015625 37.125 47 C 37.144531 47 37.167969 47 37.1875 47 C 37.273438 46.980469 37.359375 46.949219 37.4375 46.90625 C 37.570313 46.839844 37.6875 46.742188 37.78125 46.625 L 45.71875 38.71875 C 46.117188 38.320313 46.117188 37.679688 45.71875 37.28125 C 45.320313 36.882813 44.679688 36.882813 44.28125 37.28125 L 38 43.5625 L 38 12 C 38.011719 11.710938 37.894531 11.433594 37.6875 11.238281 C 37.476563 11.039063 37.191406 10.941406 36.90625 10.96875 Z M 13 41 C 12.449219 41 12 41.449219 12 42 C 12 42.550781 12.449219 43 13 43 C 13.550781 43 14 42.550781 14 42 C 14 41.449219 13.550781 41 13 41 Z M 13 45 C 12.449219 45 12 45.449219 12 46 C 12 46.550781 12.449219 47 13 47 C 13.550781 47 14 46.550781 14 46 C 14 45.449219 13.550781 45 13 45 Z "/>
</g>
</svg>
