<?xml version="1.0" encoding="UTF-8"?>
<svg width="20px" height="20px" viewBox="0 0 20 20" version="1.1" xmlns="http://www.w3.org/2000/svg" xmlns:xlink="http://www.w3.org/1999/xlink">
    <!-- Generator: Sketch 52.5 (67469) - http://www.bohemiancoding.com/sketch -->
    <title>favicon-big</title>
    <desc>Created with Sketch.</desc>
    <g id="Page-2" stroke="none" stroke-width="1" fill="none" fill-rule="evenodd">
        <g id="LandingPage-v10-upd" transform="translate(-30.000000, -17.000000)">
            <g id="favicon-big" transform="translate(30.000000, 17.000000)">
                <g id="Group-7">
                    <path d="M7.50571533,19.3733947 C6.1360524,16.3541493 4.81663023,13.1951713 3.54740925,9.89636613 C2.27818827,6.59756093 1.09573034,3.2988052 -5.93303184e-13,6.37712105e-13 L3.80764391,6.37712105e-13 C4.24593604,1.30461223 4.69335256,2.63716044 5.14990687,3.99768462 C5.60646118,5.3582088 6.06300864,6.69541628 6.51956295,8.00934717 C6.97611726,9.32327805 7.43266472,10.5952559 7.88921903,11.8253189 C8.34577334,13.0553818 8.79318985,14.1829226 9.23148199,15.2079751 C9.65151195,14.1829226 10.0897975,13.0600411 10.5463518,11.8392968 C11.0029061,10.6185525 11.4640191,9.34657463 11.9297045,8.02332508 C12.3953899,6.70007554 12.8565028,5.3582088 13.3130571,3.99768462 C13.7696114,2.63716044 14.207897,1.30461223 14.6279269,6.37712105e-13 L18.3259984,6.37712105e-13 C17.2120059,3.2988052 16.0249825,6.59756093 14.7648926,9.89636613 C13.5048027,13.1951713 12.189946,16.3541493 10.820283,19.3733947 L7.50571533,19.3733947 Z" id="Path" fill="#6863FF"></path>
                    <circle id="Oval" fill="#5FE6C9" cx="17.6" cy="17.6" r="2.4"></circle>
                </g>
            </g>
        </g>
    </g>
</svg>
