<?xml version="1.0" encoding="UTF-8"?>
<svg width="88px" height="24px" viewBox="0 0 88 24" version="1.1" xmlns="http://www.w3.org/2000/svg" xmlns:xlink="http://www.w3.org/1999/xlink">
    <!-- Generator: Sketch 52.5 (67469) - http://www.bohemiancoding.com/sketch -->
    <title>logo-toolbar</title>
    <desc>Created with Sketch.</desc>
    <g id="logo-toolbar" stroke="none" stroke-width="1" fill="none" fill-rule="evenodd">
        <g id="Group-2">
            <g id="Group">
                <path d="M75.6964028,5.98159245 C76.7955104,5.98159245 77.7205787,6.11799203 78.4716355,6.39079528 C79.2226923,6.66359853 79.8226128,7.04551736 80.2714151,7.53656321 C80.7202173,8.02760906 81.0407855,8.62322056 81.2331294,9.32341557 C81.4254732,10.0236106 81.5216437,10.7919949 81.5216437,11.6285915 L81.5216437,20.2764113 C81.0087268,20.3855326 80.2347835,20.5173855 79.1997906,20.6719741 C78.1647977,20.8265626 76.9970134,20.9038557 75.6964028,20.9038557 C74.8354353,20.9038557 74.0477533,20.8220159 73.3333334,20.658334 C72.6189135,20.494652 72.0098339,20.2309462 71.5060763,19.8672085 C71.0023187,19.5034708 70.6084777,19.0306189 70.3245416,18.4486387 C70.0406055,17.8666584 69.8986396,17.1482873 69.8986396,16.2935038 C69.8986396,15.475094 70.0589237,14.7840028 70.3794967,14.2202094 C70.7000697,13.656416 71.1351266,13.1972041 71.6846804,12.8425599 C72.2342342,12.4879157 72.8707911,12.2333031 73.5943702,12.0787146 C74.3179493,11.9241261 75.0735744,11.846833 75.8612681,11.846833 C76.2276373,11.846833 76.6123192,11.8695663 77.0153253,11.9150335 C77.4183314,11.9605007 77.8488087,12.0377938 78.3067702,12.1469151 L78.3067702,11.6013113 C78.3067702,11.2193868 78.2609747,10.8556546 78.1693824,10.5101038 C78.0777901,10.164553 77.917506,9.85992726 77.6885253,9.59621745 C77.4595445,9.33250764 77.1572945,9.12790827 76.7817661,8.98241321 C76.4062377,8.83691814 75.9345445,8.7641717 75.3666722,8.7641717 C74.5972969,8.7641717 73.8920469,8.81873153 73.2509008,8.92785283 C72.6097547,9.03697413 72.0876865,9.1642804 71.6846804,9.30977547 L71.2725171,6.63631698 C71.6938417,6.49082191 72.3075008,6.34532903 73.113513,6.19983396 C73.9195252,6.0543389 74.7804799,5.98159245 75.6964028,5.98159245 Z M75.9711783,18.2849575 C76.997012,18.2849575 77.7755349,18.2303977 78.3067702,18.1212764 L78.3067702,14.4657311 C78.1235856,14.4111705 77.8579719,14.3566107 77.5099212,14.30205 C77.1618705,14.2474893 76.7771886,14.2202094 76.3558641,14.2202094 C75.9894949,14.2202094 75.6185517,14.2474893 75.2430232,14.30205 C74.8674948,14.3566107 74.5286084,14.456637 74.2263539,14.6021321 C73.9240993,14.7476271 73.6813833,14.9522265 73.4981988,15.2159363 C73.3150142,15.4796461 73.2234232,15.8115518 73.2234232,16.2116632 C73.2234232,16.9936992 73.4707187,17.5347509 73.9653171,17.8348344 C74.4599155,18.134918 75.1285292,18.2849575 75.9711783,18.2849575 Z" id="Combined-Shape" fill="#FFFFFF"></path>
                <path d="M56.3483756,5.98159245 C57.4474831,5.98159245 58.3725514,6.11799203 59.1236082,6.39079528 C59.8746651,6.66359853 60.4745856,7.04551736 60.9233878,7.53656321 C61.3721901,8.02760906 61.6927583,8.62322056 61.8851021,9.32341557 C62.0774459,10.0236106 62.1736164,10.7919949 62.1736164,11.6285915 L62.1736164,20.2764113 C61.6606996,20.3855326 60.8867563,20.5173855 59.8517633,20.6719741 C58.8167704,20.8265626 57.6489862,20.9038557 56.3483756,20.9038557 C55.487408,20.9038557 54.6997261,20.8220159 53.9853062,20.658334 C53.2708863,20.494652 52.6618067,20.2309462 52.1580491,19.8672085 C51.6542914,19.5034708 51.2604505,19.0306189 50.9765144,18.4486387 C50.6925782,17.8666584 50.5506123,17.1482873 50.5506123,16.2935038 C50.5506123,15.475094 50.7108964,14.7840028 51.0314695,14.2202094 C51.3520425,13.656416 51.7870994,13.1972041 52.3366531,12.8425599 C52.8862069,12.4879157 53.5227638,12.2333031 54.2463429,12.0787146 C54.9699221,11.9241261 55.7255472,11.846833 56.5132409,11.846833 C56.8796101,11.846833 57.2642919,11.8695663 57.667298,11.9150335 C58.0703041,11.9605007 58.5007815,12.0377938 58.9587429,12.1469151 L58.9587429,11.6013113 C58.9587429,11.2193868 58.9129475,10.8556546 58.8213552,10.5101038 C58.7297629,10.164553 58.5694788,9.85992726 58.340498,9.59621745 C58.1115173,9.33250764 57.8092673,9.12790827 57.4337389,8.98241321 C57.0582104,8.83691814 56.5865172,8.7641717 56.018645,8.7641717 C55.2492697,8.7641717 54.5440196,8.81873153 53.9028735,8.92785283 C53.2617275,9.03697413 52.7396592,9.1642804 52.3366531,9.30977547 L51.9244899,6.63631698 C52.3458144,6.49082191 52.9594736,6.34532903 53.7654858,6.19983396 C54.571498,6.0543389 55.4324526,5.98159245 56.3483756,5.98159245 Z M56.6231511,18.2849575 C57.6489848,18.2849575 58.4275076,18.2303977 58.9587429,18.1212764 L58.9587429,14.4657311 C58.7755583,14.4111705 58.5099447,14.3566107 58.161894,14.30205 C57.8138432,14.2474893 57.4291614,14.2202094 57.0078368,14.2202094 C56.6414676,14.2202094 56.2705244,14.2474893 55.894996,14.30205 C55.5194676,14.3566107 55.1805812,14.456637 54.8783266,14.6021321 C54.576072,14.7476271 54.3333561,14.9522265 54.1501715,15.2159363 C53.9669869,15.4796461 53.875396,15.8115518 53.875396,16.2116632 C53.875396,16.9936992 54.1226915,17.5347509 54.6172899,17.8348344 C55.1118883,18.134918 55.780502,18.2849575 56.6231511,18.2849575 Z" id="Combined-Shape" fill="#FFFFFF"></path>
                <path d="M7.72119184,20.6037736 C6.34730742,17.6574985 5.02381861,14.574868 3.75068571,11.3557896 C2.47755282,8.13671126 1.29145039,4.91768119 0.192342857,1.69860283 L4.01172245,1.69860283 C4.45136546,2.97168467 4.90016098,4.27202732 5.35812245,5.59966981 C5.81608392,6.9273123 6.27403853,8.23220161 6.732,9.51437689 C7.18996147,10.7965522 7.64791608,12.0377883 8.10587755,13.2381226 C8.56383902,14.4384569 9.01263454,15.5387469 9.45227755,16.5390255 C9.87360211,15.5387469 10.3132385,14.4430036 10.7712,13.2517627 C11.2291615,12.0605219 11.6916956,10.8192857 12.1588163,9.52801698 C12.625937,8.23674826 13.0884712,6.9273123 13.5464327,5.59966981 C14.0043941,4.27202732 14.4440305,2.97168467 14.8653551,1.69860283 L18.5748245,1.69860283 C17.4573985,4.91768119 16.2667165,8.13671126 15.0027429,11.3557896 C13.7387692,14.574868 12.4198599,17.6574985 11.0459755,20.6037736 L7.72119184,20.6037736 Z" id="Path" fill="#FFFFFF"></path>
                <path d="M19.389589,7.1526284 C19.7889795,6.8713446 20.2180377,6.64013459 20.6767674,6.45899575 C21.4827796,6.1407253 22.3070978,5.98159245 23.149747,5.98159245 C25.1281405,5.98159245 26.6714475,6.59084391 27.7797143,7.80936509 C28.8879811,9.02788628 29.4421061,10.8465473 29.4421061,13.2654028 C29.4421061,13.4472717 29.4375266,13.651871 29.4283674,13.8792071 C29.4192081,14.1065431 29.4054695,14.3111425 29.387151,14.4930113 L19.9073959,14.4930113 C19.9989882,15.638785 20.4065678,16.5253822 21.130147,17.1528297 C21.8537261,17.7802772 22.9024421,18.0939962 24.2763265,18.0939962 C25.0823387,18.0939962 25.8196457,18.0212498 26.4882694,17.8757547 C27.1568932,17.7302596 27.683541,17.5756735 28.0682286,17.4119915 L28.5078694,20.1127302 C28.3246848,20.2036646 28.0728098,20.2991443 27.7522368,20.3991722 C27.4316637,20.4992 27.0653,20.5901331 26.6531347,20.6719741 C26.2409694,20.753815 25.7967534,20.8220148 25.3204735,20.8765755 C24.8441936,20.9311361 24.3587617,20.958416 23.8641633,20.958416 C22.6001896,20.958416 21.5010986,20.7720033 20.5668572,20.3991722 C19.6326158,20.0263411 18.863252,19.5080227 18.2587429,18.8442014 C17.6542337,18.1803802 17.2054382,17.3983559 16.9123429,16.4981052 C16.6964196,15.8348908 16.5600329,15.1247995 16.5031808,14.3678195 L19.389589,7.1526284 Z M26.1173225,12.0650745 C26.1173225,11.6104024 26.0532088,11.1784704 25.9249796,10.7692656 C25.7967504,10.3600607 25.608989,10.0054218 25.3616898,9.70533821 C25.1143906,9.40525463 24.8121406,9.16882869 24.4549306,8.9960533 C24.0977207,8.82327791 23.6718229,8.73689151 23.1772245,8.73689151 C22.6643077,8.73689151 22.2155121,8.83237122 21.8308245,9.02333349 C21.4461369,9.21429577 21.1209891,9.46436166 20.8553714,9.77353868 C20.5897538,10.0827157 20.3836742,10.4373546 20.2371265,10.837466 C20.0905789,11.2375775 19.9898289,11.6467762 19.9348735,12.0650745 L26.1173225,12.0650745 Z" id="Combined-Shape" fill="#FFFFFF"></path>
                <path d="M39.4883102,9.30977547 C39.2135333,9.21884105 38.833431,9.12336135 38.3479918,9.02333349 C37.8625527,8.92330563 37.2992685,8.87329245 36.6581224,8.87329245 C36.2917533,8.87329245 35.9024919,8.90966567 35.4903265,8.98241321 C35.0781612,9.05516074 34.7896498,9.11881388 34.6247837,9.17337453 L34.6247837,20.6037736 L31.3,20.6037736 L31.3,7.01823962 C31.9411461,6.78181014 32.7425666,6.55902416 33.7042857,6.349875 C34.6660048,6.14072584 35.733039,6.03615283 36.9054204,6.03615283 C37.1252419,6.03615283 37.3816965,6.04979279 37.6747918,6.07707311 C37.9678872,6.10435344 38.2609781,6.14072666 38.5540735,6.18619387 C38.8471688,6.23166108 39.1311007,6.28622091 39.4058776,6.349875 C39.6806544,6.41352909 39.9004726,6.47263558 40.0653388,6.52719623 L39.4883102,9.30977547 Z" id="Path" fill="#FFFFFF"></path>
                <path d="M41.1,2.57156887 L44.4247837,2.02596509 L44.4247837,6.33623491 L49.5356082,6.33623491 L49.5356082,9.09153396 L44.4247837,9.09153396 L44.4247837,14.9022142 C44.4247837,16.0479878 44.6079655,16.8663853 44.9743347,17.3574311 C45.3407039,17.848477 45.9635221,18.0939962 46.8428082,18.0939962 C47.4473173,18.0939962 47.9831242,18.0303431 48.4502449,17.9030349 C48.9173656,17.7757267 49.2883088,17.6575138 49.5630857,17.5483925 L50.1126367,20.1672906 C49.7279491,20.3309725 49.224199,20.4991987 48.6013714,20.6719741 C47.9785438,20.8447494 47.2458165,20.9311358 46.4031673,20.9311358 C45.3773336,20.9311358 44.5209585,20.7947363 43.8340163,20.521933 C43.1470741,20.2491298 42.6021081,19.853571 42.199102,19.3352448 C41.7960959,18.8169186 41.5121641,18.1894806 41.347298,17.4529118 C41.1824318,16.716343 41.1,15.8752123 41.1,14.9294943 L41.1,2.57156887 Z" id="Path" fill="#FFFFFF"></path>
                <path d="M68.6602341,18.8032811 C68.6602341,19.4398221 68.4449954,19.9581405 68.0145117,20.3582519 C67.5840279,20.7583633 67.0665392,20.958416 66.46203,20.958416 C65.8392024,20.958416 65.3171342,20.7583633 64.8958096,20.3582519 C64.4744851,19.9581405 64.2638259,19.4398221 64.2638259,18.8032811 C64.2638259,18.1667402 64.4744851,17.6438752 64.8958096,17.2346703 C65.3171342,16.8254654 65.8392024,16.620866 66.46203,16.620866 C67.0665392,16.620866 67.5840279,16.8254654 68.0145117,17.2346703 C68.4449954,17.6438752 68.6602341,18.1667402 68.6602341,18.8032811 Z" id="Path" fill="#5FE6C9"></path>
                <polygon id="Path" fill="#FFFFFF" points="87.6235756 20.6037736 84.298792 20.6037736 84.298792 6.33623491 87.6235756 6.33623491"></polygon>
                <path d="M87.9807838,2.16236604 C87.9807838,2.78072007 87.7792838,3.27175856 87.3762777,3.63549623 C86.9732716,3.99923389 86.4969988,4.1811 85.947445,4.1811 C85.3795728,4.1811 84.8941409,3.99923389 84.4911348,3.63549623 C84.0881287,3.27175856 83.8866287,2.78072007 83.8866287,2.16236604 C83.8866287,1.52582512 84.0881287,1.02569333 84.4911348,0.66195566 C84.8941409,0.298217993 85.3795728,0.116351887 85.947445,0.116351887 C86.4969988,0.116351887 86.9732716,0.298217993 87.3762777,0.66195566 C87.7792838,1.02569333 87.9807838,1.52582512 87.9807838,2.16236604 Z" id="Path" fill="#5FE6C9"></path>
            </g>
        </g>
    </g>
</svg>