<?xml version="1.0" encoding="UTF-8"?>
<svg xmlns="http://www.w3.org/2000/svg" xmlns:xlink="http://www.w3.org/1999/xlink" viewBox="0 0 50 50" version="1.1" width="100px" height="100px">
<g id="surface1">
<path style=" " fill="currentColor" d="M 3.8125 -0.03125 C 3.027344 0.0351563 2.355469 0.550781 2.09375 1.292969 C 1.828125 2.035156 2.027344 2.863281 2.59375 3.40625 C 7.992188 8.855469 10.699219 11.644531 11.875 13.46875 C 13.050781 15.292969 13 16.160156 13 19.1875 L 13 35.1875 L 10.40625 32.59375 C 10.03125 32.199219 9.511719 31.972656 8.96875 31.96875 C 8.15625 31.976563 7.429688 32.472656 7.128906 33.226563 C 6.824219 33.980469 7.011719 34.839844 7.59375 35.40625 L 13.59375 41.40625 C 14.371094 42.175781 15.628906 42.175781 16.40625 41.40625 L 22.40625 35.40625 C 23.003906 34.925781 23.273438 34.148438 23.101563 33.402344 C 22.929688 32.652344 22.347656 32.070313 21.597656 31.898438 C 20.851563 31.726563 20.074219 31.996094 19.59375 32.59375 L 17 35.1875 L 17 19.1875 C 17 16.117188 16.84375 13.839844 15.21875 11.3125 C 13.59375 8.785156 10.804688 6.042969 5.40625 0.59375 C 5.039063 0.207031 4.535156 -0.0195313 4 -0.03125 C 3.9375 -0.0351563 3.875 -0.0351563 3.8125 -0.03125 Z M 45.9375 -0.03125 C 45.425781 -0.00390625 44.945313 0.222656 44.59375 0.59375 C 39.195313 6.042969 36.40625 8.785156 34.78125 11.3125 C 33.15625 13.839844 33 16.117188 33 19.1875 L 33 35.1875 L 30.40625 32.59375 C 30.03125 32.199219 29.511719 31.972656 28.96875 31.96875 C 28.15625 31.976563 27.429688 32.472656 27.128906 33.226563 C 26.824219 33.980469 27.011719 34.839844 27.59375 35.40625 L 33.59375 41.40625 C 34.371094 42.175781 35.628906 42.175781 36.40625 41.40625 L 42.40625 35.40625 C 43.003906 34.925781 43.273438 34.148438 43.101563 33.402344 C 42.929688 32.652344 42.347656 32.070313 41.597656 31.898438 C 40.851563 31.726563 40.074219 31.996094 39.59375 32.59375 L 37 35.1875 L 37 19.1875 C 37 16.160156 36.949219 15.292969 38.125 13.46875 C 39.300781 11.644531 42.007813 8.855469 47.40625 3.40625 C 48.003906 2.828125 48.183594 1.945313 47.855469 1.179688 C 47.53125 0.417969 46.765625 -0.0625 45.9375 -0.03125 Z M 0 17 L 0 50 L 50 50 L 50 17 L 43 17 L 43 21 L 46 21 L 46 46 L 4 46 L 4 21 L 7 21 L 7 17 Z "/>
</g>
</svg>