<?xml version="1.0" encoding="UTF-8" standalone="yes"?>
<svg xmlns="http://www.w3.org/2000/svg" viewBox="0 0 50 50" width="30" height="30" fill="currentColor">
  <path d="M 25 2 C 12.308594 2 2 12.308594 2 25 C 2 37.691406 12.308594 48 25 48 C 37.691406 48 48 37.691406 48 25 C 48 12.308594 37.691406 2 25 2 Z M 25 4 C 36.609375 4 46 13.390625 46 25 C 46 36.609375 36.609375 46 25 46 C 13.390625 46 4 36.609375 4 25 C 4 13.390625 13.390625 4 25 4 Z M 21.90625 13.96875 C 21.863281 13.976563 21.820313 13.988281 21.78125 14 C 21.40625 14.066406 21.105469 14.339844 21 14.703125 C 20.894531 15.070313 21.003906 15.460938 21.28125 15.71875 L 30.5625 25 L 21.28125 34.28125 C 20.882813 34.679688 20.882813 35.320313 21.28125 35.71875 C 21.679688 36.117188 22.320313 36.117188 22.71875 35.71875 L 32.71875 25.71875 C 32.914063 25.53125 33.023438 25.269531 33.023438 25 C 33.023438 24.730469 32.914063 24.46875 32.71875 24.28125 L 22.71875 14.28125 C 22.511719 14.058594 22.210938 13.945313 21.90625 13.96875 Z"/>
</svg>
