<?xml version="1.0" encoding="UTF-8"?>
<svg width="20px" height="21px" viewBox="0 0 20 21" version="1.1" xmlns="http://www.w3.org/2000/svg" xmlns:xlink="http://www.w3.org/1999/xlink">
    <title>file</title>
    <g id="Runs" stroke="none" stroke-width="1" fill="none" fill-rule="evenodd">
        <g id="0-Run-ID-default-1" transform="translate(-358.000000, -1106.000000)">
            <g id="artifacts" transform="translate(358.000000, 1106.000000)">
                <g id="file">
                    <polygon id="Path" points="0 0.84 20 0.84 20 21 0 21"></polygon>
                    <path d="M6.66666667,13.76 L13.3333333,13.76 L13.3333333,15.44 L6.66666667,15.44 L6.66666667,13.76 Z M6.66666667,10.4 L13.3333333,10.4 L13.3333333,12.08 L6.66666667,12.08 L6.66666667,10.4 Z M11.6666667,2 L5,2 C4.08333333,2 3.33333333,2.756 3.33333333,3.68 L3.33333333,17.12 C3.33333333,18.044 4.075,18.8 4.99166667,18.8 L15,18.8 C15.9166667,18.8 16.6666667,18.044 16.6666667,17.12 L16.6666667,7.04 L11.6666667,2 Z M15,17.12 L5,17.12 L5,3.68 L10.8333333,3.68 L10.8333333,7.88 L15,7.88 L15,17.12 Z" id="Shape" fill="#514EB5" fill-rule="nonzero"></path>
                </g>
            </g>
        </g>
    </g>
</svg>