<?xml version="1.0" standalone="no"?>
<!DOCTYPE svg PUBLIC "-//W3C//DTD SVG 20010904//EN"
 "http://www.w3.org/TR/2001/REC-SVG-20010904/DTD/svg10.dtd">
<svg version="1.0" xmlns="http://www.w3.org/2000/svg"
 width="104.000000pt" height="104.000000pt" viewBox="0 0 104.000000 104.000000"
 preserveAspectRatio="xMidYMid meet">
<g transform="translate(0.000000,104.000000) scale(0.100000,-0.100000)"
fill="currentColor" stroke="none">
<path fill="currentColor" d="M242 920 c-41 -9 -68 -33 -81 -71 -11 -33 -7 -35 53 -18 49 14 94 5
140 -26 20 -14 39 -25 41 -25 10 0 4 42 -9 75 -23 54 -79 80 -144 65z"/>
<path d="M700 923 c-44 -16 -90 -93 -76 -128 4 -12 12 -10 41 9 45 31 102 40
155 26 23 -6 44 -9 47 -6 11 10 -32 78 -58 91 -28 15 -80 18 -109 8z"/>
<path d="M195 796 c-16 -7 -38 -22 -47 -33 -10 -10 -47 -105 -83 -210 -73
-213 -81 -273 -46 -342 69 -134 249 -162 354 -55 46 46 61 83 61 151 l1 62 21
-20 c27 -26 88 -25 114 1 l20 20 0 -57 c0 -73 26 -130 76 -171 136 -112 340
-29 361 146 5 43 -3 73 -57 233 -78 227 -90 252 -134 273 -68 32 -134 15 -200
-53 -36 -37 -39 -38 -64 -25 -36 19 -92 18 -121 -2 -22 -16 -24 -15 -69 29
-68 67 -122 82 -187 53z m93 -376 c34 -21 62 -72 62 -112 0 -62 -70 -128 -135
-128 -66 0 -128 63 -128 129 0 104 111 166 201 111z m593 -3 c67 -45 75 -139
18 -196 -54 -55 -129 -53 -186 4 -29 29 -33 39 -33 85 0 47 4 56 39 91 33 34
45 39 83 39 30 0 56 -8 79 -23z"/>
</g>
</svg>
