<?xml version="1.0" standalone="no"?>
<!DOCTYPE svg PUBLIC "-//W3C//DTD SVG 20010904//EN"
 "http://www.w3.org/TR/2001/REC-SVG-20010904/DTD/svg10.dtd">
<svg version="1.0" xmlns="http://www.w3.org/2000/svg"
 width="980.000000pt" height="620.000000pt" viewBox="0 0 980.000000 620.000000"
 preserveAspectRatio="xMidYMid meet">

<g transform="translate(0.000000,620.000000) scale(0.100000,-0.100000)"
fill="currentColor" stroke="none">
<path d="M2835 6189 c-871 -66 -1680 -511 -2212 -1216 -321 -427 -522 -920
-600 -1468 -26 -184 -26 -626 0 -810 52 -363 146 -669 303 -984 133 -266 277
-479 475 -699 l92 -104 404 404 c222 221 418 420 434 440 l30 37 -76 88 c-227
262 -374 575 -437 933 -20 114 -17 490 5 606 74 395 240 715 512 990 234 237
487 388 800 477 242 70 167 67 1949 67 l1606 0 2 -617 3 -617 1220 1232 c671
678 1222 1237 1223 1242 4 12 -5574 11 -5733 -1z"/>
<path d="M8473 4858 c-238 -239 -433 -437 -433 -442 0 -4 30 -42 68 -84 240
-273 397 -617 447 -980 19 -144 19 -348 0 -499 -98 -755 -650 -1373 -1390
-1557 -187 -46 -175 -46 -1879 -46 l-1606 0 -2 617 -3 616 -1220 -1232 c-671
-678 -1222 -1237 -1223 -1242 -3 -6 1090 -8 2875 -6 3153 3 2930 -1 3238 62
1193 242 2132 1180 2389 2388 50 234 61 352 60 657 0 299 -13 430 -65 665
-117 530 -390 1050 -761 1448 l-63 68 -432 -433z"/>
</g>
</svg>
