<?xml version="1.0" encoding="UTF-8"?>
<svg width="24px" height="24px" viewBox="0 0 24 24" version="1.1" xmlns="http://www.w3.org/2000/svg" xmlns:xlink="http://www.w3.org/1999/xlink">
    <g id="Runs" stroke="none" stroke-width="1" fill="none" fill-rule="evenodd">
        <g id="0-Run-ID-default-1" transform="translate(-358.000000, -2096.000000)">
            <g id="deploy-info" transform="translate(358.000000, 2096.000000)">
                <g id="backup-24px">
                    <polygon id="Path" points="0 0 24 0 24 24 0 24"></polygon>
                    <path d="M19.35,10.04 C18.67,6.59 15.64,4 12,4 C9.11,4 6.6,5.64 5.35,8.04 C2.34,8.36 0,10.91 0,14 C0,17.31 2.69,20 6,20 L19,20 C21.76,20 24,17.76 24,15 C24,12.36 21.95,10.22 19.35,10.04 Z M19,18 L6,18 C3.79,18 2,16.21 2,14 C2,11.95 3.53,10.24 5.56,10.03 L6.63,9.92 L7.13,8.97 C8.08,7.14 9.94,6 12,6 C14.62,6 16.88,7.86 17.39,10.43 L17.69,11.93 L19.22,12.04 C20.78,12.14 22,13.45 22,15 C22,16.65 20.65,18 19,18 Z M8,15 L10.55,15 L10.55,23 L13.45,23 L13.45,15 L16,15 L12,11 L8,15 Z" id="Shape" fill="#514EB5" fill-rule="nonzero"></path>
                </g>
            </g>
        </g>
    </g>
</svg>