<?xml version="1.0" encoding="UTF-8"?>
<svg xmlns="http://www.w3.org/2000/svg" xmlns:xlink="http://www.w3.org/1999/xlink" viewBox="0 0 50 50" version="1.1" width="50px" height="50px">
<g id="surface1">
<path style=" " fill="currentColor" d="M 24.90625 7.96875 C 24.863281 7.976563 24.820313 7.988281 24.78125 8 C 24.316406 8.105469 23.988281 8.523438 24 9 L 24 38.53125 L 14.8125 29.34375 C 14.625 29.144531 14.367188 29.035156 14.09375 29.03125 C 13.6875 29.035156 13.324219 29.28125 13.171875 29.660156 C 13.023438 30.035156 13.113281 30.46875 13.40625 30.75 L 24.28125 41.65625 L 25 42.34375 L 25.71875 41.65625 L 36.59375 30.75 C 36.890625 30.507813 37.027344 30.121094 36.941406 29.746094 C 36.855469 29.375 36.5625 29.082031 36.191406 28.996094 C 35.816406 28.910156 35.429688 29.046875 35.1875 29.34375 L 26 38.53125 L 26 9 C 26.011719 8.710938 25.894531 8.433594 25.6875 8.238281 C 25.476563 8.039063 25.191406 7.941406 24.90625 7.96875 Z "/>
</g>
</svg>
