<?xml version="1.0" encoding="UTF-8"?>
<svg width="26px" height="20px" viewBox="0 0 26 20" version="1.1" xmlns="http://www.w3.org/2000/svg" xmlns:xlink="http://www.w3.org/1999/xlink">
    <!-- Generator: sketchtool 58 (101010) - https://sketch.com -->
    <title>4044F2BE-0372-4F25-B192-606C9956BEC8</title>
    <desc>Created with sketchtool.</desc>
    <defs>
        <path d="M3.07692308,10.7692308 L3.07692308,9.9719089 C3.07692308,9.34210833 0.615266149,7.58726478 0.615266149,7.58726478 C0.275464038,7.33474018 0,6.79057114 0,6.36183944 L0,3.58974361 C0,2.70866099 0.688846154,1.99430201 1.53846154,1.99430201 L1.53846154,4.38746442 L2.30769231,4.38746442 L2.30769231,0.664900289 C2.30769231,0.29754986 2.59461538,0 2.94884615,0 C3.65692308,0 4.23076923,0.595099719 4.23076923,1.32940172 L4.23076923,1.06376069 C4.23076923,0.696410261 4.51769231,0.398860402 4.87192308,0.398860402 C5.58,0.398860402 6.15384615,0.993960121 6.15384615,1.72826212 L6.15384615,1.46262109 C6.15384615,1.09527066 6.44076923,0.797720803 6.795,0.769230774 C7.50307692,0.797720803 8.07692308,1.39282052 8.07692308,2.12712252 L8.07692308,1.86148149 C8.07692308,1.49413106 8.36384615,1.1965812 8.71807692,1.1965812 C9.42615385,1.1965812 10,1.79168092 10,2.52598292 L10,6.15716164 C10,6.580165 9.81747682,7.21631657 9.59578734,7.58252591 C9.59578734,7.58252591 8.46153846,9.34210833 8.46153846,9.9719089 L8.46153846,10.7692308 L3.07692308,10.7692308 Z" id="path-1"></path>
        <filter x="-60.0%" y="-44.8%" width="220.0%" height="209.8%" filterUnits="objectBoundingBox" id="filter-2">
            <feMorphology radius="1" operator="dilate" in="SourceAlpha" result="shadowSpreadOuter1"></feMorphology>
            <feOffset dx="0" dy="1" in="shadowSpreadOuter1" result="shadowOffsetOuter1"></feOffset>
            <feGaussianBlur stdDeviation="1.5" in="shadowOffsetOuter1" result="shadowBlurOuter1"></feGaussianBlur>
            <feComposite in="shadowBlurOuter1" in2="SourceAlpha" operator="out" result="shadowBlurOuter1"></feComposite>
            <feColorMatrix values="0 0 0 0 0   0 0 0 0 0   0 0 0 0 0  0 0 0 0.2 0" type="matrix" in="shadowBlurOuter1"></feColorMatrix>
        </filter>
    </defs>
    <g id="Search" stroke="none" stroke-width="1" fill="none" fill-rule="evenodd">
        <g id="2a-contextual-search-3" transform="translate(-48.000000, -323.000000)">
            <g id="Left-Nav" transform="translate(0.000000, 60.000000)">
                <g id="Group-2" transform="translate(29.000000, 220.000000)">
                    <g id="Drag-and-drop-area">
                        <g id="Group-36" transform="translate(19.000000, 43.000000)">
                            <rect id="Rectangle-133-Copy-2" stroke="#CCCCCC" x="0.5" y="3.5" width="13" height="8.33333333" rx="4.16666667"></rect>
                            <rect id="Rectangle-133" stroke="#AAAAAA" fill-opacity="0.455774694" fill="#BBBBBB" x="4.5" y="0.5" width="13" height="8.33333333" rx="4.16666667"></rect>
                            <g id="Cursor-/-Grabbing" transform="translate(12.000000, 4.000000)">
                                <g id="Imported-Layers-Copy-4">
                                    <use fill="black" fill-opacity="1" filter="url(#filter-2)" xlink:href="#path-1"></use>
                                    <path stroke="#BBBBBB" stroke-width="1" d="M1.80769231,1.49430201 L1.80769231,0.664900289 C1.80769231,0.025394288 2.31432251,-0.5 2.94884615,-0.5 C3.46579052,-0.5 3.92944136,-0.274877427 4.25413258,0.0838792158 C4.43172035,-0.0330739848 4.64353732,-0.101139598 4.87192308,-0.101139598 C5.38979817,-0.101139598 5.85418765,0.12479434 6.17896191,0.484678667 C6.35787191,0.364761133 6.57428853,0.287710017 6.81510163,0.269635013 C7.32579002,0.29018296 7.78191275,0.522189947 8.10204797,0.880442268 C8.2792742,0.76419774 8.49044583,0.696581205 8.71807692,0.696581205 C9.70644672,0.696581205 10.5,1.51952535 10.5,2.52598292 L10.5,6.15716164 C10.5,6.66977865 10.2934183,7.39561041 10.0160407,7.85342649 C9.98282483,7.90495491 9.92307201,8.0000205 9.84573084,8.12715873 C9.71654927,8.33951547 9.58739742,8.56138503 9.46736929,8.78091029 C9.40475604,8.8954267 9.34625835,9.00638895 9.29265172,9.11272917 C9.0832614,9.52809958 8.96153846,9.85598911 8.96153846,9.9719089 L8.96153846,11.2692308 L2.57692308,11.2692308 L2.57692308,9.9719089 C2.57692308,9.95736815 2.31487068,9.63246012 1.90640592,9.25977527 C1.78928104,9.15291007 1.66133644,9.04131645 1.52432068,8.92611456 C1.26241404,8.7059053 0.980527637,8.48332099 0.698494668,8.27024182 C0.529367555,8.14246433 0.398406681,8.04671288 0.317027913,7.98858006 C-0.150883097,7.64085108 -0.5,6.94726808 -0.5,6.36183944 L-0.5,3.58974361 C-0.5,2.43650542 0.40855328,1.49430201 1.53846154,1.49430201 L1.80769231,1.49430201 Z" fill="#FFFFFF" fill-rule="evenodd"></path>
                                </g>
                            </g>
                        </g>
                    </g>
                </g>
            </g>
        </g>
    </g>
</svg>