<svg id="Layer_1" data-name="Layer 1" xmlns="http://www.w3.org/2000/svg" viewBox="0 0 24 24"><defs><style>.cls-1{fill:none;}</style></defs><rect class="cls-1" x="3" y="17" width="2" height="2" fill="white"/><rect class="cls-1" x="3" y="5" width="2" height="2" fill="white"/><path fill="currentColor" d="M16,17h-.91L12.8,12l2.29-5H16v3l7-4L16,2V5H14l-.91,2L11.8,9.81,10.51,7,9.6,5H7V3H1V9H7V7H8.51l2.29,5L8.51,17H7V15H1v6H7V19H9.6l.91-2,1.29-2.81L13.09,17,14,19h2v3l7-4-7-4ZM5,7H3V5H5ZM5,19H3V17H5Z"/></svg>