<?xml version="1.0" encoding="UTF-8"?>
<svg width="24px" height="24px" viewBox="0 0 24 24" version="1.1" xmlns="http://www.w3.org/2000/svg" xmlns:xlink="http://www.w3.org/1999/xlink">
    <g id="Essentials" stroke="none" stroke-width="1" fill="none" fill-rule="evenodd">
        <g id="Login-page-01" transform="translate(-1364.000000, -980.000000)" fill="#FFFFFF">
            <g id="Github-Copy" transform="translate(1364.000000, 980.000000)">
                <path d="M11.9875993,0 C5.36789878,0 0,5.31174257 0,11.8643849 C0,17.1063809 3.43481205,21.5536588 8.197852,23.1224657 C8.79695405,23.232292 9.01690271,22.865091 9.01690271,22.5517226 C9.01690271,22.2688068 9.00578617,21.3342026 9.00062492,20.3428188 C5.66566322,21.060521 4.96194659,18.9429754 4.96194659,18.9429754 C4.41664065,17.5716201 3.63093956,17.2069732 3.63093956,17.2069732 C2.54330532,16.4706064 3.71292403,16.4857346 3.71292403,16.4857346 C4.9166864,16.5694305 5.55052763,17.7083627 5.55052763,17.7083627 C6.61970048,19.5221668 8.35487311,18.9977903 9.03893728,18.6946383 C9.1465295,17.9278188 9.45719706,17.4044248 9.80002318,17.1081491 C7.13741358,16.8081406 4.33842786,15.7908228 4.33842786,11.2447209 C4.33842786,9.94939916 4.80671207,8.89101932 5.57355475,8.06015088 C5.44908922,7.76132115 5.03876982,6.55460703 5.68968288,4.92037583 C5.68968288,4.92037583 6.69632519,4.60150624 8.98712627,6.13652047 C9.94334713,5.87364462 10.9688479,5.74181376 11.9875993,5.73729496 C13.0063507,5.74181376 14.0326454,5.87364462 14.9906529,6.13652047 C17.2786748,4.60150624 18.2839276,4.92037583 18.2839276,4.92037583 C18.9364287,6.55460703 18.5259108,7.76132115 18.4014452,8.06015088 C19.1700745,8.89101932 19.6351826,9.94939916 19.6351826,11.2447209 C19.6351826,15.8016286 16.8308371,16.8049971 14.1614782,17.0987186 C14.59145,17.466902 14.9745736,18.1889265 14.9745736,19.2958342 C14.9745736,20.8833057 14.9606779,22.1609452 14.9606779,22.5517226 C14.9606779,22.8674486 15.1764579,23.2374002 15.7840958,23.120894 C20.5445552,21.5503188 23.975,17.1046127 23.975,11.8643849 C23.975,5.31174257 18.6078953,0 11.9875993,0" id="Fill-4"></path>
                <path d="M4.31627995,17.0660249 C4.28992727,17.1243845 4.19640495,17.1418924 4.11120454,17.1018188 C4.024419,17.063496 3.97567644,16.9839325 4.00381239,16.9253784 C4.02957065,16.8652681 4.12329111,16.8485384 4.2098785,16.8888064 C4.29686218,16.9271292 4.34639731,17.0074709 4.31627995,17.0660249" id="Fill-5"></path>
                <path d="M5.10958535,17.5848129 C5.05252089,17.6367529 4.94096779,17.612631 4.86527812,17.5305385 C4.78701262,17.4486406 4.77235023,17.3391192 4.83020725,17.2864011 C4.88905498,17.2344611 4.99723969,17.2587776 5.07570332,17.3406755 C5.15396882,17.423546 5.16922564,17.5322893 5.10958535,17.5848129" id="Fill-6"></path>
                <path d="M5.5166623,18.0531616 C5.44335032,18.1031562 5.32347532,18.0562741 5.24937077,17.9518105 C5.17605879,17.8473469 5.17605879,17.7220684 5.25095589,17.6718792 C5.32525858,17.62169 5.44335032,17.6668214 5.51844556,17.7705068 C5.59155941,17.8767212 5.59155941,18.0019997 5.5166623,18.0531616" id="Fill-7"></path>
                <path d="M6.00469339,18.8235549 C5.93910889,18.894559 5.79941984,18.8754949 5.69717934,18.778618 C5.59256116,18.683881 5.56343451,18.5494595 5.62921715,18.4784554 C5.69559422,18.4072568 5.83607583,18.4272935 5.93910889,18.5233923 C6.04293451,18.6179347 6.07463699,18.7533289 6.00469339,18.8235549" id="Fill-8"></path>
                <path d="M6.89384031,19.0846665 C6.86491179,19.1766801 6.7303744,19.2185044 6.5948463,19.1794035 C6.45951634,19.1391354 6.37094754,19.0313648 6.39829093,18.9383786 C6.42642688,18.8457815 6.5615587,18.8022063 6.6980775,18.8440307 C6.83320932,18.8841042 6.92197626,18.9910967 6.89384031,19.0846665" id="Fill-9"></path>
                <path d="M8.10625792,19.3917909 C8.10962631,19.4886677 7.99470482,19.5690094 7.85243994,19.5707602 C7.70938251,19.5738727 7.59366846,19.4954764 7.59208333,19.4001558 C7.59208333,19.3023063 7.70442899,19.2227427 7.84748643,19.2204084 C7.98975131,19.2176849 8.10625792,19.2954976 8.10625792,19.3917909" id="Fill-10"></path>
                <path d="M8.9014032,19.3546581 C8.91844329,19.4492006 8.81957118,19.546272 8.67829701,19.5721447 C8.53940052,19.5970448 8.41080734,19.5386852 8.39317283,19.4449209 C8.37593461,19.348044 8.47658998,19.2509726 8.61528833,19.225878 C8.75676064,19.2017561 8.88337242,19.2585594 8.9014032,19.3546581" id="Fill-11"></path>
            </g>
        </g>
    </g>
</svg>