<?xml version="1.0" encoding="UTF-8"?>
<svg width="20px" height="20px" viewBox="0 0 20 20" version="1.1" xmlns="http://www.w3.org/2000/svg" xmlns:xlink="http://www.w3.org/1999/xlink">
    <title>noun_Settings_1477814</title>
    <g id="Runs" stroke="none" stroke-width="1" fill="none" fill-rule="evenodd">
        <g id="0-Run-ID-default-1" transform="translate(-358.000000, -721.000000)" fill="#514EB5" fill-rule="nonzero">
            <g id="hyperparameters" transform="translate(358.000000, 721.000000)">
                <g id="noun_Settings_1477814">
                    <g id="Group">
                        <path d="M9,8.7 L9,19.875 L11,19.875 L11,8.7 C12.1936517,8.27339477 12.990359,7.14259477 12.990359,5.875 C12.990359,4.60740523 12.1936517,3.47660523 11,3.05 L11,0.125 L9,0.125 L9,3.05 C7.80634826,3.47660523 7.00964103,4.60740523 7.00964103,5.875 C7.00964103,7.14259477 7.80634826,8.27339477 9,8.7 L9,8.7 Z M10,4.875 C10.5522847,4.875 11,5.32271525 11,5.875 C11,6.42728475 10.5522847,6.875 10,6.875 C9.44771525,6.875 9,6.42728475 9,5.875 C9,5.32271525 9.44771525,4.875 10,4.875 L10,4.875 Z" id="Shape"></path>
                        <path d="M17.875,11.3 L17.875,0.125 L15.875,0.125 L15.875,11.3 C14.6813483,11.7266052 13.884641,12.8574052 13.884641,14.125 C13.884641,15.3925948 14.6813483,16.5233948 15.875,16.95 L15.875,19.875 L17.875,19.875 L17.875,16.95 C19.0686517,16.5233948 19.865359,15.3925948 19.865359,14.125 C19.865359,12.8574052 19.0686517,11.7266052 17.875,11.3 Z M16.875,15.125 C16.3227153,15.125 15.875,14.6772847 15.875,14.125 C15.875,13.5727153 16.3227153,13.125 16.875,13.125 C17.4272847,13.125 17.875,13.5727153 17.875,14.125 C17.875,14.6772847 17.4272847,15.125 16.875,15.125 Z" id="Shape"></path>
                        <path d="M2.125,16.95 L2.125,19.875 L4.125,19.875 L4.125,16.95 C5.31865174,16.5233948 6.11535897,15.3925948 6.11535897,14.125 C6.11535897,12.8574052 5.31865174,11.7266052 4.125,11.3 L4.125,0.125 L2.125,0.125 L2.125,11.3 C0.93134826,11.7266052 0.134641025,12.8574052 0.134641025,14.125 C0.134641025,15.3925948 0.93134826,16.5233948 2.125,16.95 L2.125,16.95 Z M3.125,13.125 C3.67728475,13.125 4.125,13.5727153 4.125,14.125 C4.125,14.6772847 3.67728475,15.125 3.125,15.125 C2.57271525,15.125 2.125,14.6772847 2.125,14.125 C2.125,13.5727153 2.57271525,13.125 3.125,13.125 Z" id="Shape"></path>
                    </g>
                </g>
            </g>
        </g>
    </g>
</svg>