<?xml version="1.0" encoding="UTF-8" standalone="yes"?>
<svg width="80pt" height="80pt" viewBox="0 0 80 80" version="1.1" fill="#fff">
  <g id="surface134050">
    <path style=" stroke:none;fill-rule:nonzero;fill:#fff;fill-opacity:1;" d="M 65.601562 6.398438 L 14.398438 6.398438 C 9.984375 6.398438 6.398438 9.984375 6.398438 14.398438 L 6.398438 65.601562 C 6.398438 70.015625 9.984375 73.601562 14.398438 73.601562 L 65.601562 73.601562 C 70.015625 73.601562 73.601562 70.015625 73.601562 65.601562 L 73.601562 14.398438 C 73.601562 9.984375 70.015625 6.398438 65.601562 6.398438 Z M 27.199219 32 L 27.199219 62.398438 L 17.601562 62.398438 L 17.601562 32 Z M 17.601562 23.152344 C 17.601562 20.910156 19.519531 19.199219 22.398438 19.199219 C 25.28125 19.199219 27.089844 20.910156 27.199219 23.152344 C 27.199219 25.390625 25.40625 27.199219 22.398438 27.199219 C 19.519531 27.199219 17.601562 25.390625 17.601562 23.152344 Z M 62.398438 62.398438 L 52.800781 62.398438 C 52.800781 62.398438 52.800781 47.585938 52.800781 46.398438 C 52.800781 43.199219 51.199219 40 47.199219 39.9375 L 47.070312 39.9375 C 43.199219 39.9375 41.601562 43.230469 41.601562 46.398438 C 41.601562 47.855469 41.601562 62.398438 41.601562 62.398438 L 32 62.398438 L 32 32 L 41.601562 32 L 41.601562 36.097656 C 41.601562 36.097656 44.6875 32 50.894531 32 C 57.246094 32 62.398438 36.367188 62.398438 45.214844 Z M 62.398438 62.398438 "/>
  </g>
</svg>
