<?xml version="1.0" encoding="UTF-8" standalone="yes"?>
<svg xmlns="http://www.w3.org/2000/svg" viewBox="0 0 128 128" width="64" height="64" fill="currentColor">
  <path d="M 27 5 C 18.2 5 11 12.2 11 21 C 11 29.8 18.2 37 27 37 C 35.8 37 43 29.8 43 21 C 43 12.2 35.8 5 27 5 z M 27 11 C 32.5 11 37 15.5 37 21 C 37 26.5 32.5 31 27 31 C 21.5 31 17 26.5 17 21 C 17 15.5 21.5 11 27 11 z M 54 12 C 52.3 12 51 13.3 51 15 C 51 16.7 52.3 18 54 18 L 104 18 C 105.7 18 107 16.7 107 15 C 107 13.3 105.7 12 104 12 L 54 12 z M 54 24 C 52.3 24 51 25.3 51 27 C 51 28.7 52.3 30 54 30 L 74 30 C 75.7 30 77 28.7 77 27 C 77 25.3 75.7 24 74 24 L 54 24 z M 27 48 C 18.2 48 11 55.2 11 64 C 11 72.8 18.2 80 27 80 C 35.8 80 43 72.8 43 64 C 43 55.2 35.8 48 27 48 z M 54 55 C 52.3 55 51 56.3 51 58 C 51 59.7 52.3 61 54 61 L 104 61 C 105.7 61 107 59.7 107 58 C 107 56.3 105.7 55 104 55 L 54 55 z M 54 67 C 52.3 67 51 68.3 51 70 C 51 71.7 52.3 73 54 73 L 74 73 C 75.7 73 77 71.7 77 70 C 77 68.3 75.7 67 74 67 L 54 67 z M 27 91 C 18.2 91 11 98.2 11 107 C 11 115.8 18.2 123 27 123 C 35.8 123 43 115.8 43 107 C 43 98.2 35.8 91 27 91 z M 54 98 C 52.3 98 51 99.3 51 101 C 51 102.7 52.3 104 54 104 L 104 104 C 105.7 104 107 102.7 107 101 C 107 99.3 105.7 98 104 98 L 54 98 z M 54 110 C 52.3 110 51 111.3 51 113 C 51 114.7 52.3 116 54 116 L 74 116 C 75.7 116 77 114.7 77 113 C 77 111.3 75.7 110 74 110 L 54 110 z"/>
</svg>