<?xml version="1.0" encoding="UTF-8"?>
<svg width="24px" height="22px" viewBox="0 0 24 22" version="1.1" xmlns="http://www.w3.org/2000/svg" xmlns:xlink="http://www.w3.org/1999/xlink">
    <!-- Generator: Sketch 64 (93537) - https://sketch.com -->
    <title>noun_monitoring_2049392</title>
    <desc>Created with Sketch.</desc>
    <g id="Navigation" stroke="none" stroke-width="1" fill="none" fill-rule="evenodd">
        <g id="Intuit-Navigation" transform="translate(-28.000000, -368.000000)" fill="currentColor" fill-rule="nonzero">
            <g id="Left-Nav-Copy" transform="translate(0.000000, 60.000000)">
                <g id="noun_monitoring_2049392" transform="translate(28.000000, 308.000000)">
                    <g id="Group">
                        <g transform="translate(0.000000, 3.600000)">
                            <rect id="Rectangle" x="0.39813654" y="8.48813778" width="3.57308436" height="9"></rect>
                            <path d="M9.7194969,4.2352524 L9.7194969,8.11204608 C9.6154152,8.00951388 9.51598662,7.8999939 9.42044676,7.78503114 C8.6576706,6.86069184 8.30036316,5.69400102 8.41454544,4.49934768 C8.42308962,4.4107956 8.43396378,4.32224922 8.44716798,4.2352524 L9.7194969,4.2352524 L9.7194969,4.2352524 Z" id="Path"></path>
                            <path d="M9.7194969,13.2603928 L9.7194969,17.4884514 L6.14641224,17.4884514 L6.14641224,10.7662262 C7.1259075,11.8956344 8.350074,12.7446304 9.7194969,13.2603928 Z" id="Path"></path>
                            <path d="M13.3081169,0.45632514 C14.0980774,0.53089596 14.8375534,0.8058666 15.4675026,1.25016972 L15.4675026,8.59752042 C14.690744,9.14668806 13.7873749,9.41389386 12.8878945,9.41389386 C12.5538849,9.41389386 12.2206582,9.37660674 11.8944168,9.30359568 L11.8944168,0.54409902 C12.213668,0.47263866 12.5414589,0.4361286 12.8739121,0.4361286 C13.0176109,0.4361286 13.1628639,0.44312208 13.3081169,0.45632514 Z" id="Path"></path>
                            <path d="M12.9003205,13.8359734 C13.7780548,13.8359734 14.6418091,13.7078064 15.4675026,13.4576935 L15.4675026,17.4884513 L11.8944168,17.4884513 L11.8944168,13.7800438 C11.9425758,13.7862602 11.9899612,13.7909202 12.0381203,13.7955803 C12.3262939,13.8227692 12.6144745,13.8359734 12.9003205,13.8359734 Z" id="Path"></path>
                        </g>
                        <path d="M6.70849116,13.6243378 C9.52189866,17.0274262 14.5783516,17.5091835 17.9814194,14.6957359 C21.3883827,11.8823296 21.8662628,6.82589604 19.0566925,3.42280884 C16.2432655,0.01972158 11.1868309,-0.46201632 7.7837643,2.3514324 C4.3768215,5.16483882 3.8989197,10.2212723 6.70849116,13.6243378 Z M9.4448433,4.36318818 C11.7379532,2.46702576 15.1487526,2.79075396 17.044915,5.0838867 C18.9410774,7.38087384 18.6173492,10.7916527 16.3203621,12.6878151 C14.0272293,14.5839981 10.6164505,14.2563927 8.7202881,11.9632416 C6.82410624,9.66631392 7.14785502,6.2593506 9.4448433,4.36318818 Z" id="Shape"></path>
                        <path d="M23.7637842,19.5030529 C24.0522524,19.8398441 24.0031126,20.3384505 23.6540038,20.6167434 L22.8310466,21.2727366 C22.4819221,21.551016 21.9650585,21.5035951 21.6765885,21.1668344 L17.3516899,16.1177511 L19.4389014,14.4540001 L23.7637842,19.5030529 Z" id="Path"></path>
                    </g>
                </g>
            </g>
        </g>
    </g>
</svg>