<?xml version="1.0" standalone="no"?>
<!DOCTYPE svg PUBLIC "-//W3C//DTD SVG 20010904//EN"
 "http://www.w3.org/TR/2001/REC-SVG-20010904/DTD/svg10.dtd">
<svg version="1.0" xmlns="http://www.w3.org/2000/svg"
 width="96.000000pt" height="96.000000pt" viewBox="0 0 96.000000 96.000000"
 preserveAspectRatio="xMidYMid meet">
<g transform="translate(0.000000,96.000000) scale(0.100000,-0.100000)"
fill="#6863ff" stroke="none">
<path d="M180 860 c-19 -19 -20 -33 -20 -380 0 -347 1 -361 20 -380 18 -18 33
-20 187 -20 l167 0 -39 40 -39 40 -108 0 -108 0 0 80 0 80 188 0 188 0 39 40
39 40 -227 0 -227 0 0 80 0 80 240 0 240 0 0 -80 0 -80 40 0 40 0 0 220 c0
207 -1 221 -20 240 -19 19 -33 20 -300 20 -267 0 -281 -1 -300 -20z m540 -140
l0 -80 -240 0 -240 0 0 80 0 80 240 0 240 0 0 -80z"/>
<path d="M635 240 l-80 -80 83 -83 82 -82 0 63 0 62 120 0 120 0 0 40 0 40
-120 0 -119 0 -3 60 -3 61 -80 -81z"/>
</g>
</svg>
