<?xml version="1.0" encoding="UTF-8" standalone="yes"?>
<svg xmlns="http://www.w3.org/2000/svg" xmlns:xlink="http://www.w3.org/1999/xlink" width="60px" height="60px" viewBox="0 0 60 60" version="1.1" fill="currentColor">
  <g id="surface125723">
    <path style=" stroke:none;fill-rule:nonzero;fill:currentColor;fill-opacity:1;" d="M 51.886719 6.023438 C 51 5.894531 50.082031 6.265625 49.535156 7.035156 L 40.761719 19.382812 L 38.296875 18.003906 C 36.582031 17.042969 34.425781 17.410156 33.121094 18.882812 L 30.777344 21.53125 L 50.453125 32.652344 L 51.523438 29.195312 C 52.109375 27.308594 51.292969 25.269531 49.566406 24.304688 L 47.75 23.289062 L 53.792969 9.445312 C 54.296875 8.289062 53.847656 6.941406 52.75 6.320312 C 52.476562 6.164062 52.183594 6.066406 51.886719 6.023438 Z M 8 14 C 6.894531 14 6 14.894531 6 16 C 6 17.105469 6.894531 18 8 18 C 9.105469 18 10 17.105469 10 16 C 10 14.894531 9.105469 14 8 14 Z M 12 20 C 9.789062 20 8 21.789062 8 24 C 8 26.210938 9.789062 28 12 28 C 14.210938 28 16 26.210938 16 24 C 16 21.789062 14.210938 20 12 20 Z M 28.023438 25.050781 C 18.132812 35.121094 6 35.515625 6 35.515625 L 15.808594 41.449219 C 15.808594 41.449219 20.425781 41.933594 22.652344 41.480469 C 20.554688 42.902344 19.242188 43.621094 19.242188 43.621094 L 24.570312 46.882812 C 24.570312 46.882812 30.277344 46.617188 37.378906 42.371094 C 35.984375 45.421875 31.109375 50.488281 31.109375 50.488281 L 38.699219 54 C 38.699219 54 44.953125 49.46875 49.191406 36.976562 Z M 28.023438 25.050781 "/>
  </g>
</svg>
