<?xml version="1.0" encoding="UTF-8"?>
<svg width="18px" height="18px" viewBox="0 0 18 18" version="1.1" xmlns="http://www.w3.org/2000/svg" xmlns:xlink="http://www.w3.org/1999/xlink">
    <!-- Generator: Sketch 64 (93537) - https://sketch.com -->
    <title>Search</title>
    <desc>Created with Sketch.</desc>
    <g id="Search" stroke="none" stroke-width="1" fill="none" fill-rule="evenodd">
        <g id="1b-High-level-search-results" transform="translate(-299.000000, -170.000000)" fill="#777777">
            <path d="M306.194891,170 C310.16852,170 313.389783,173.23674 313.389783,177.229461 C313.389783,178.858076 312.853831,180.360912 311.949481,181.569611 L316.672476,186.152468 C317.097174,186.564564 317.111863,187.24158 316.6989,187.671271 C316.288796,188.097986 315.61414,188.111859 315.187359,187.697741 L310.425815,183.077479 C309.23839,183.946326 307.776216,184.458922 306.194891,184.458922 C302.221263,184.458922 299,181.222182 299,177.229461 C299,173.23674 302.221263,170 306.194891,170 Z M306.130797,172.155803 C303.32655,172.155803 301.053259,174.440016 301.053259,177.257737 C301.053259,180.075457 303.32655,182.359671 306.130797,182.359671 C307.24676,182.359671 308.278637,181.997924 309.11662,181.384767 L309.11662,181.384767 L310.191893,180.320643 C310.830106,179.467647 311.208334,178.407074 311.208334,177.257737 C311.208334,174.440016 308.935043,172.155803 306.130797,172.155803 Z" id="Search"></path>
        </g>
    </g>
</svg>