<?xml version="1.0" encoding="UTF-8"?>
<svg width="20px" height="11px" viewBox="0 0 20 11" version="1.1" xmlns="http://www.w3.org/2000/svg" xmlns:xlink="http://www.w3.org/1999/xlink">
    <g id="Share" stroke="none" stroke-width="1" fill="none" fill-rule="evenodd">
        <g id="Share&amp;Collaboration_States" transform="translate(-754.000000, -68.000000)" fill="#000000">
            <g id="3.Icon/20/Switch" transform="translate(754.000000, 63.000000)">
                <path fill="currentColor" d="M1,6.99850993 C1.55228475,6.99850993 2,7.44622518 2,7.99850993 L2,9.58440993 L6.293,5.29150993 C6.59835628,4.98913907 7.0619368,4.91383686 7.4473,5.10400993 L10.8027,6.78170993 C10.8927855,8.31706451 10.8094522,9.02083118 10.5527,8.89300993 L7.1973,7.21530993 L3.4141,10.9985099 L5,10.9985099 C5.55228475,10.9985099 6,11.4462252 6,11.9985099 C6,12.5507947 5.55228475,12.9985099 5,12.9985099 L1,12.9985099 C0.44771525,12.9985099 1.54543045e-13,12.5507947 1.54543045e-13,11.9985099 L1.54543045e-13,7.99850993 C1.54543045e-13,7.44622518 0.44771525,6.99850993 1,6.99850993 Z M18.8377974,13.9985099 C18.2855127,13.9985099 17.8377974,13.5507947 17.8377974,12.9985099 L17.8377974,11.4126099 L13.5447974,15.7055099 C13.2394411,16.0078808 12.7758606,16.083183 12.3904974,15.8930099 L9.03509741,14.2153099 C8.94501187,12.6799554 9.02834521,11.9761887 9.28509741,12.1040099 L12.6404974,13.7817099 L16.4236974,9.99850993 L14.8377974,9.99850993 C14.2855127,9.99850993 13.8377974,9.55079468 13.8377974,8.99850993 C13.8377974,8.44622518 14.2855127,7.99850993 14.8377974,7.99850993 L18.8377974,7.99850993 C19.3900822,7.99850993 19.8377974,8.44622518 19.8377974,8.99850993 L19.8377974,12.9985099 C19.8377974,13.5507947 19.3900822,13.9985099 18.8377974,13.9985099 Z" id="Combined-Shape"></path>
            </g>
        </g>
    </g>
</svg>