<?xml version="1.0" encoding="UTF-8"?>
<svg width="14px" height="14px" viewBox="0 0 14 14" version="1.1" xmlns="http://www.w3.org/2000/svg" xmlns:xlink="http://www.w3.org/1999/xlink">
    <g id="Share" stroke="none" stroke-width="1" fill="none" fill-rule="evenodd">
        <g id="Share&amp;Collaboration_States" transform="translate(-627.000000, -66.000000)" fill="#000000" fill-rule="nonzero">
            <g id="3.Icon/20/Edit" transform="translate(624.000000, 63.000000)">
                <path fill="currentColor" d="M16.0219,3.87900936 C15.4592641,3.31619854 14.696061,3 13.90025,3 C13.104439,3 12.3412359,3.31619854 11.7786,3.87900936 L3.293,12.3631094 C3.10542612,12.5506266 3.00003012,12.8049799 3,13.0702094 L3,15.8984094 C3,16.4506941 3.44771525,16.8984094 4,16.8984094 L6.829,16.8984094 C7.09424916,16.8984782 7.34863886,16.7930671 7.5361,16.6054094 L16.0227,8.12080936 C17.1896433,6.94752174 17.1892857,5.05185673 16.0219,3.87900936 Z M14.6068,5.29260936 C14.9962603,5.68336844 14.9967073,6.31539986 14.6078,6.70670936 L13.9006,7.41390936 L12.4858,5.99950936 L13.1927,5.29260936 C13.5832113,4.90216077 14.2162887,4.90216077 14.6068,5.29260936 Z M6.4151,14.8984094 L5.0001,14.8984094 L5.0001,13.4843094 L11.0715,7.41350936 L12.4864,8.82790936 L6.4151,14.8984094 Z" id="Shape"></path>
            </g>
        </g>
    </g>
</svg>