<?xml version="1.0" encoding="UTF-8"?>
<svg width="16px" height="12px" viewBox="0 0 16 12" version="1.1" xmlns="http://www.w3.org/2000/svg" xmlns:xlink="http://www.w3.org/1999/xlink">
    <g id="Share" stroke="none" stroke-width="1" fill="none" fill-rule="evenodd">
        <g id="Share&amp;Collaboration_States" transform="translate(-686.000000, -67.000000)" fill="#000000">
            <g id="3.Icon/20/View" transform="translate(684.000000, 63.000000)">
                <path fill="currentColor" d="M17.8323583,9.4453 C15.9465523,6.6171 13.6925451,4 10.0000333,4 C6.30752149,4 4.05351429,6.6171 2.16770827,9.4453 C1.94409724,9.78129688 1.94409724,10.2187031 2.16770827,10.5547 C4.05351429,13.3829 6.30752149,16 10.0000333,16 C13.6925451,16 15.9465523,13.3827 17.8323583,10.5545 C18.0558806,10.2185491 18.0558806,9.78125094 17.8323583,9.4453 Z M10.0000333,14 C7.8779265,14 6.22162121,12.8682 4.21081479,10 C6.22162121,7.1317 7.8779265,6 10.0000333,6 C12.12214,6 13.7784453,7.1318 15.7892517,10 C13.7784453,12.8683 12.12214,14 10.0000333,14 Z" id="Shape" fill-rule="nonzero"></path>
                <path fill="currentColor" d="M10,8 C8.8954305,8 8,8.8954305 8,10 C8,11.1045695 8.8954305,12 10,12 C11.1045695,12 12,11.1045695 12,10 C11.9985127,8.89604716 11.1039528,8.00148733 10,8 L10,8 Z" id="Path" fill-rule="evenodd"></path>
            </g>
        </g>
    </g>
</svg>