<?xml version="1.0" encoding="UTF-8"?>
<svg xmlns="http://www.w3.org/2000/svg" xmlns:xlink="http://www.w3.org/1999/xlink" viewBox="0 0 50 50" version="1.1" width="50px" height="50px">
<g id="surface1">
<path style=" " fill="currentColor" d="M 25 7.65625 L 24.28125 8.34375 L 13.40625 19.25 C 13.109375 19.492188 12.972656 19.878906 13.058594 20.253906 C 13.144531 20.625 13.4375 20.917969 13.808594 21.003906 C 14.183594 21.089844 14.570313 20.953125 14.8125 20.65625 L 24 11.46875 L 24 41 C 23.996094 41.359375 24.183594 41.695313 24.496094 41.878906 C 24.808594 42.058594 25.191406 42.058594 25.503906 41.878906 C 25.816406 41.695313 26.003906 41.359375 26 41 L 26 11.46875 L 35.1875 20.65625 C 35.429688 20.953125 35.816406 21.089844 36.191406 21.003906 C 36.5625 20.917969 36.855469 20.625 36.941406 20.253906 C 37.027344 19.878906 36.890625 19.492188 36.59375 19.25 L 25.71875 8.34375 Z "/>
</g>
</svg>
