<?xml version="1.0" encoding="UTF-8"?>
<svg xmlns="http://www.w3.org/2000/svg" xmlns:xlink="http://www.w3.org/1999/xlink" viewBox="0 0 48 48" version="1.1" width="96px" height="96px">
<g id="surface1">
<path style=" fill:#90A4AE;" d="M 38 24 L 38 36 C 38 37.101563 37.101563 38 36 38 L 12 38 C 10.898438 38 10 37.101563 10 36 L 10 24 C 10 20.699219 7.300781 18 4 18 L 4 22 C 5.101563 22 6 22.898438 6 24 L 6 36 C 6 39.300781 8.699219 42 12 42 L 36 42 C 39.300781 42 42 39.300781 42 36 L 42 24 C 42 22.898438 42.898438 22 44 22 L 44 18 C 40.699219 18 38 20.699219 38 24 Z "/>
<path style=" fill:#6863ff;" d="M 37.601563 5.601563 L 28 15.199219 L 28 28 L 32 28 L 32 16.800781 L 40.398438 8.398438 Z "/>
<path style=" fill:#6863ff;" d="M 7.601563 8.398438 L 16 16.800781 L 16 28 L 20 28 L 20 15.199219 L 10.398438 5.601563 Z "/>
<path style=" fill:#6863ff;" d="M 36 27 L 30 33 L 24 27 Z "/>
<path style=" fill:#6863ff;" d="M 24 27 L 18 33 L 12 27 Z "/>
</g>
</svg>
