<?xml version="1.0" encoding="UTF-8"?>
<svg width="51px" height="33px" viewBox="0 0 51 33" version="1.1" xmlns="http://www.w3.org/2000/svg" xmlns:xlink="http://www.w3.org/1999/xlink">
    <!-- Generator: Sketch 58 (84663) - https://sketch.com -->
    <title>Group 36</title>
    <desc>Created with Sketch.</desc>
    <defs>
        <rect id="path-1" x="0" y="10" width="30" height="20" rx="10"></rect>
        <mask id="mask-2" maskContentUnits="userSpaceOnUse" maskUnits="objectBoundingBox" x="0" y="0" width="30" height="20" fill="white">
            <use xlink:href="#path-1"></use>
        </mask>
        <path d="M10,14 L9,12 L8,14 L4,14 L4,12.9634815 C4,12.1447407 0.799845994,9.86344415 0.799845994,9.86344415 C0.358103249,9.53516217 0,8.82774242 0,8.27039121 L0,4.66666667 C0,3.52125926 0.8955,2.59259259 2,2.59259259 L2,5.7037037 L3,5.7037037 L3,0.86437037 C3,0.386814815 3.373,0 3.8335,0 C4.754,0 5.5,0.77362963 5.5,1.72822222 L5.5,1.38288889 C5.5,0.905333333 5.873,0.518518519 6.3335,0.518518519 C7.254,0.518518519 8,1.29214815 8,2.24674074 L8,1.90140741 C8,1.42385185 8.373,1.03703704 8.8335,1 C9.754,1.03703704 10.5,1.81066667 10.5,2.76525926 L10.5,2.41992593 C10.5,1.94237037 10.873,1.55555556 11.3335,1.55555556 C12.254,1.55555556 13,2.32918519 13,3.28377778 L13,8.00431008 C13,8.55421444 12.7627199,9.38121147 12.4745235,9.85728362 C12.4745235,9.85728362 11,12.1447407 11,12.9634815 L11,14 L10,14 Z M6,6.00000012 L7,6 L7,9.99999988 L6,10 L6,6.00000012 L6,6.00000012 Z M8,6.00000012 L9,6 L9,9.99999988 L8,10 L8,6.00000012 L8,6.00000012 Z M10,6.00000012 L11,6 L11,9.99999988 L10,10 L10,6.00000012 L10,6.00000012 Z" id="path-3"></path>
        <filter x="-46.2%" y="-35.7%" width="192.3%" height="185.7%" filterUnits="objectBoundingBox" id="filter-4">
            <feMorphology radius="1" operator="dilate" in="SourceAlpha" result="shadowSpreadOuter1"></feMorphology>
            <feOffset dx="0" dy="1" in="shadowSpreadOuter1" result="shadowOffsetOuter1"></feOffset>
            <feGaussianBlur stdDeviation="1.5" in="shadowOffsetOuter1" result="shadowBlurOuter1"></feGaussianBlur>
            <feComposite in="shadowBlurOuter1" in2="SourceAlpha" operator="out" result="shadowBlurOuter1"></feComposite>
            <feColorMatrix values="0 0 0 0 0   0 0 0 0 0   0 0 0 0 0  0 0 0 0.2 0" type="matrix" in="shadowBlurOuter1"></feColorMatrix>
        </filter>
    </defs>
    <g id="Buttons,-Icon-buttons,-Links" stroke="none" stroke-width="1" fill="none" fill-rule="evenodd">
        <g id="3c-Organizations---Create-New-Org" transform="translate(-218.000000, -403.000000)">
            <g id="Group-36" transform="translate(218.000000, 403.000000)">
                <use id="Rectangle-133-Copy-2" stroke-opacity="0.6" stroke="#514EB5" mask="url(#mask-2)" stroke-width="4" stroke-dasharray="4,2" xlink:href="#path-1"></use>
                <rect id="Rectangle-133" stroke="#514EB5" stroke-width="2" fill-opacity="0.3" fill="#514EB5" x="13" y="1" width="28" height="18" rx="9"></rect>
                <g id="Cursor-/-Grabbing" transform="translate(34.000000, 14.000000)">
                    <g id="Imported-Layers-Copy-4">
                        <use fill="black" fill-opacity="1" filter="url(#filter-4)" xlink:href="#path-3"></use>
                        <path stroke-opacity="0.8" stroke="#000000" stroke-width="1" d="M9,13.118034 L8.30901699,14.5 L3.5,14.5 L3.5,12.9634815 C3.5,12.8823389 3.14725845,12.4449891 2.57942945,11.9268997 C2.42558484,11.7865312 2.25774761,11.6401432 2.07814906,11.489138 C1.73546931,11.2010152 1.36704028,10.9100948 0.998464683,10.6316317 C0.777411994,10.4646238 0.606064561,10.3393439 0.501607759,10.2647594 C-0.0686165432,9.84099613 -0.5,8.98397596 -0.5,8.27039121 L-0.5,4.66666667 C-0.5,3.24910369 0.615207127,2.09259259 2,2.09259259 L2.5,2.09259259 L2.5,2.34259259 L2.5,0.86437037 C2.5,0.114659243 3.09270713,-0.5 3.8335,-0.5 C4.50884254,-0.5 5.10982527,-0.183224402 5.50647301,0.312243343 C5.73319885,0.128532321 6.02009698,0.0185185185 6.3335,0.0185185185 C7.00949029,0.0185185185 7.61097805,0.335902069 8.00761376,0.832188016 C8.23455317,0.646191762 8.52518251,0.52529664 8.85360163,0.500404239 C9.52311093,0.527342469 10.1159244,0.85307675 10.5079586,1.34807837 C10.7344515,1.16508959 11.0207811,1.05555556 11.3335,1.05555556 C12.5342929,1.05555556 13.5,2.05702961 13.5,3.28377778 L13.5,8.00431008 C13.5,8.64305564 13.2390763,9.55981989 12.8947769,10.1281842 C12.8509274,10.1962087 12.7725659,10.3208805 12.6712991,10.4873491 C12.5022416,10.7652564 12.3332138,11.0556287 12.1759682,11.3432229 C12.0938019,11.4935008 12.0169819,11.639218 11.9465038,11.7790263 C11.6635769,12.3402723 11.5,12.7809053 11.5,12.9634815 L11.5,14.5 L9.69098301,14.5 L9,13.118034 Z M6.5,8 L6.5,9.99999988 L6.99999994,9.49999988 L5.99999994,9.5 L6.5,10 L6.5,8 Z M6.5,8 L6.5,6.00000012 L6.00000006,6.50000012 L7.00000006,6.5 L6.5,6 L6.5,8 Z M8.5,8 L8.5,9.99999988 L8.99999994,9.49999988 L7.99999994,9.5 L8.5,10 L8.5,8 Z M8.5,8 L8.5,6.00000012 L8.00000006,6.50000012 L9.00000006,6.5 L8.5,6 L8.5,8 Z M10.5,8 L10.5,9.99999988 L10.9999999,9.49999988 L9.99999994,9.5 L10.5,10 L10.5,8 Z M10.5,8 L10.5,6.00000012 L10.0000001,6.50000012 L11.0000001,6.5 L10.5,6 L10.5,8 Z" fill="#FFFFFF" fill-rule="evenodd"></path>
                    </g>
                </g>
            </g>
        </g>
    </g>
</svg>